<svg width="148" height="123" viewBox="0 0 148 123" fill="none" xmlns="http://www.w3.org/2000/svg">
<path d="M70.171 0.414648L24.3911 45.7972C23.9198 46.2645 23.6579 46.8932 23.6579 47.5509V121.598C23.6579 122.371 24.2922 123 25.072 123H99.7676C100.431 123 101.065 122.74 101.537 122.273L147.317 76.8906C147.637 76.5733 147.794 76.1176 147.718 75.6676C144.75 57.3346 136.138 39.74 121.892 25.6182C107.647 11.4964 89.8982 2.95865 71.4047 0.0166056C70.9566 -0.052619 70.4969 0.0973678 70.171 0.414648Z" fill="white"/>
<path d="M122.658 86.4668C123.904 85.8917 125.15 85.029 126.204 84.0705C130.134 80.6197 132.627 75.1561 132.627 69.0214C132.627 59.8195 126.971 52.1512 119.495 50.5217C119.303 50.4258 119.015 50.4258 118.728 50.4258C118.44 50.4258 118.249 50.33 117.961 50.33C117.769 50.33 117.482 50.33 117.29 50.2341C117.098 50.2341 116.907 50.2341 116.715 50.2341C116.619 50.2341 116.523 50.2341 116.427 50.2341C115.565 50.2341 114.702 50.33 113.839 50.5217H113.744C112.881 50.7134 112.018 50.9051 111.251 51.2885C110.101 51.7678 109.047 52.3429 108.088 53.0139C106.363 54.26 104.829 55.8895 103.583 57.8066C101.57 60.9697 100.324 64.8039 100.324 69.1173C100.324 72.4722 101.091 75.6353 102.433 78.3192C102.624 78.7027 102.816 78.9902 103.008 79.3736C103.391 80.0446 103.775 80.7156 104.254 81.2907C106.075 83.687 108.376 85.6041 111.06 86.7544C111.251 86.8502 111.443 86.9461 111.539 86.9461C111.731 87.0419 111.826 87.0419 112.018 87.1378C112.402 87.2336 112.785 87.3295 113.168 87.4253C113.36 87.5212 113.552 87.5212 113.744 87.5212C113.839 87.5212 114.031 87.617 114.127 87.617C114.319 87.617 114.414 87.7129 114.606 87.7129C115.181 87.8088 115.756 87.8088 116.332 87.8088C116.427 87.8088 116.427 87.8088 116.523 87.8088C118.632 87.9046 120.741 87.3295 122.658 86.4668Z" fill="white"/>
<path d="M39.4558 49.8488C42.7148 50.0405 46.0697 49.3696 48.9453 47.8359C48.9453 47.6442 48.9453 47.5483 49.0412 47.3566C48.3702 45.9188 47.7951 44.5769 47.0282 43.1391C44.9195 45.7271 42.2356 48.0276 39.4558 49.8488Z" fill="black"/>
<path d="M103.583 57.709C104.829 55.792 106.363 54.1625 108.088 52.9164C109.047 52.2454 110.101 51.6703 111.251 51.191C112.114 50.9034 112.881 50.6159 113.743 50.4242H113.839C114.702 50.2325 115.565 50.1366 116.427 50.1366C116.523 50.1366 116.619 50.1366 116.715 50.1366C116.907 50.1366 117.098 50.1366 117.29 50.1366C117.482 50.1366 117.769 50.1366 117.961 50.2325C118.249 50.2325 118.44 50.3283 118.728 50.3283C119.015 50.3283 119.207 50.4242 119.495 50.4242C119.399 50.4242 119.399 50.4242 119.303 50.4242C118.44 50.4242 117.578 50.52 116.715 50.6159H116.619C115.756 50.8076 114.894 50.9993 114.127 51.3827C112.977 51.862 111.922 52.4371 110.964 53.1081C109.238 54.3542 107.705 55.9837 106.459 57.9007C104.446 61.0639 103.199 64.8981 103.199 69.2115C103.199 72.5663 103.966 75.7295 105.308 78.4134C107.609 83.1102 111.635 86.6568 116.331 87.6154C115.756 87.6154 115.181 87.5195 114.606 87.5195C114.414 87.5195 114.319 87.5195 114.127 87.4237C114.031 87.4237 113.839 87.4237 113.743 87.3278C113.552 87.3278 113.36 87.232 113.168 87.232C112.785 87.1361 112.401 87.0402 112.018 86.9444C111.826 86.8485 111.635 86.8485 111.539 86.7527C111.347 86.6568 111.155 86.6568 111.059 86.561C108.376 85.4107 106.075 83.4937 104.254 81.0973C103.775 80.5222 103.391 79.8512 103.008 79.1803C102.816 78.8927 102.624 78.5093 102.433 78.1259C101.091 75.442 100.324 72.2788 100.324 68.9239C100.324 64.8022 101.57 60.8722 103.583 57.709C103.583 57.8049 103.583 57.709 103.583 57.709Z" fill="white"/>
<path d="M117.291 50.3281C117.1 50.3281 116.908 50.3281 116.716 50.3281C116.908 50.2322 117.1 50.2322 117.291 50.3281Z" fill="white"/>
<path d="M113.167 87.4243C113.359 87.5202 113.551 87.5202 113.743 87.5202C113.551 87.5202 113.359 87.5202 113.167 87.4243Z" fill="white"/>
<path d="M103.487 57.6138L103.582 57.8055C101.57 60.9687 100.323 64.8028 100.323 69.1163C100.323 72.4711 101.09 75.6343 102.432 78.3182L102.145 78.5099L91.6966 77.8389C90.5464 75.2509 89.8754 72.2794 89.8754 69.1163C89.8754 64.1319 91.2174 60.4894 93.5178 57.3263L103.487 57.6138Z" fill="black"/>
<path d="M103.007 79.3723C103.39 80.0435 103.774 80.7147 104.253 81.29C103.774 80.7147 103.39 80.0435 103.007 79.3723Z" fill="white"/>
<path d="M96.393 15.5329C96.5847 15.5329 96.6806 15.6287 96.8723 15.6287C96.6806 15.6287 96.4889 15.6287 96.2972 15.6287C94.9552 15.7246 93.6133 16.2038 92.463 16.9707C89.2998 18.8877 87.1911 22.7219 87.1911 27.1311C87.1911 31.5404 89.2998 35.3746 92.463 37.2916C92.6547 37.3875 92.8464 37.4833 93.0381 37.5792C93.6133 37.8668 94.1884 38.1543 94.8594 38.346C94.6677 38.346 94.5718 38.346 94.3801 38.346C93.9967 38.346 93.7091 38.346 93.3257 38.2502C92.9423 38.2502 92.6547 38.1543 92.2713 38.0585C91.5045 37.8668 90.7377 37.5792 90.0667 37.1958C89.875 37.0999 89.6833 37.0041 89.4916 36.9082C86.3284 34.9911 84.2196 31.157 84.2196 26.7477C84.2196 22.3385 86.3284 18.5043 89.4916 16.5872C90.6418 15.8204 91.9837 15.437 93.3257 15.2453L94.2842 15.1494C94.4759 15.1494 94.6677 15.1494 94.7635 15.1494C94.8594 15.1494 94.9552 15.1494 95.0511 15.1494C95.1469 15.1494 95.2428 15.1494 95.3386 15.1494C95.5303 15.1494 95.6262 15.2453 95.8179 15.2453C96.1055 15.437 96.2972 15.437 96.393 15.5329Z" fill="white"/>
<path d="M96.3928 15.5333C96.2969 15.5333 96.2011 15.4374 96.0093 15.4374C96.1052 15.4374 96.2969 15.4374 96.3928 15.5333Z" fill="white"/>
<path d="M95.2423 15.341C95.1465 15.341 95.0506 15.341 94.9547 15.341C95.0506 15.2451 95.1465 15.2451 95.2423 15.341Z" fill="white"/>
<path d="M94.3796 15.2469L93.4207 15.3427C93.7083 15.2469 94.0919 15.2469 94.3796 15.2469Z" fill="white"/>
<path d="M84.4109 15.822L93.517 15.2469C92.1751 15.3427 90.8331 15.822 89.6829 16.5888C86.5197 18.5059 84.4109 22.34 84.4109 26.7493C84.4109 31.1586 86.5197 34.9927 89.6829 36.9098C89.4912 37.0056 89.2995 37.1015 89.1077 37.1973H80.5768C77.126 35.3761 74.7297 31.542 74.7297 27.0369C74.7297 21.1898 78.6597 15.9178 83.8358 15.822H84.4109Z" fill="black"/>
<path d="M92.2709 38.1539L92.1751 38.6332C90.1622 40.6461 88.1492 42.4674 86.2322 44.2886C82.3022 47.8352 78.3722 51.2859 74.4422 55.12L72.7168 52.7237L89.4912 37.3871H89.1078C89.2995 37.2913 89.4912 37.1954 89.6829 37.0995C89.8746 37.1954 90.0663 37.2913 90.258 37.3871C90.8331 37.6747 91.5041 37.9622 92.2709 38.1539Z" fill="white"/>
<path d="M75.0176 81.0969C74.8259 81.2886 74.6342 81.4803 74.4425 81.672C74.2508 81.8637 74.0591 82.0554 73.8673 82.2471C73.4839 82.6305 73.0047 82.9181 72.6212 83.2056C72.4295 83.3015 72.142 83.4932 71.9503 83.589C71.7586 83.6849 71.471 83.7808 71.2793 83.9725C68.4037 81.001 65.0488 77.3586 61.6939 73.7161C62.94 72.7576 64.1861 71.7991 65.4322 70.9364C68.7871 74.5788 72.2378 78.2212 75.0176 81.0969Z" fill="white"/>
<path d="M72.7176 52.7251L74.4429 55.1214C73.8678 58.8597 73.3886 62.6938 72.7176 65.7612C72.3342 66.0487 72.0466 66.2404 71.6632 66.528C71.3756 66.7197 70.9922 67.0073 70.7046 67.199C69.7461 67.8699 68.8834 68.4451 68.0208 69.116C67.2539 69.6912 66.5829 70.1704 65.8161 70.7455C65.7203 70.8414 65.5286 70.9373 65.4327 71.0331C64.1866 71.9916 62.9405 72.8543 61.6944 73.8129C61.5027 73.9087 61.311 74.1004 61.2151 74.1963C60.7359 74.5797 60.2566 74.9631 59.6815 75.3465C59.1064 75.8258 58.5312 76.2092 57.8603 76.6885C57.4769 76.976 56.9976 77.2636 56.5183 77.647C56.2308 76.4968 56.0391 76.3051 55.4639 75.2507C61.4069 70.6497 65.0493 68.1575 70.9922 63.5565C71.3756 60.2975 72.43 55.7924 72.7176 52.7251Z" fill="white"/>
<path d="M60.162 65.1881L56.903 68.5429C52.4937 63.7502 48.8513 59.7244 47.6052 57.999C47.6052 57.999 47.701 57.999 47.701 57.9032C47.7969 57.9032 47.9886 57.8073 48.0845 57.7115C49.043 57.2322 50.0015 56.6571 50.8642 55.8902C51.0559 55.6985 51.2476 55.5068 51.4393 55.411C53.0689 57.4239 56.3279 61.0663 60.162 65.1881Z" fill="white"/>
<path d="M53.546 45.9193C55.4631 48.2198 54.5045 52.3415 51.4372 55.4088C51.2455 55.6005 51.0538 55.7922 50.8621 55.888C49.9994 56.6549 49.0409 57.23 48.0823 57.7093C47.9865 57.8051 47.7948 57.8051 47.6989 57.901C47.6989 57.901 47.6031 57.901 47.6031 57.9968C44.9192 59.0512 42.1394 58.7637 40.6058 57.0383C39.2638 55.4088 39.2638 53.0124 40.414 50.712L44.2482 53.971C45.4943 54.8337 47.2197 54.8337 48.8492 53.4917C50.3828 52.1498 50.6704 50.5202 49.9994 49.0824L48.6575 46.3985L47.7948 44.6732C50.0953 44.0022 52.204 44.3856 53.546 45.9193Z" fill="white"/>
<path d="M49.9037 48.9871C50.5747 50.5208 50.2871 52.0544 48.7535 53.3964C47.124 54.7383 45.3986 54.7383 44.1525 53.8756L40.3184 50.6166L41.4686 49.6581C43.4815 49.3705 46.6447 48.6037 48.5618 46.3032L49.9037 48.9871Z" fill="white"/>
<path d="M47.7951 44.5771L48.6577 46.3025C46.7407 48.6988 43.5775 49.4657 41.5646 49.6574L47.7951 44.5771Z" fill="black"/>
<path d="M47.1243 43.1403L47.7953 44.5781L41.5648 49.6583C40.4145 49.7542 39.6477 49.7542 39.6477 49.7542C43.1943 49.0832 47.1243 43.1403 47.1243 43.1403Z" fill="black"/>
<path d="M47.0285 43.1403C47.0285 43.1403 43.1944 49.0832 39.5519 49.85C40.4146 49.3707 41.2773 48.7956 42.14 48.1246C44.0571 46.6868 45.6866 45.0573 47.0285 43.1403Z" fill="white"/>
<path d="M39.4558 49.85L47.0282 43.1403C45.5904 45.0573 43.9609 46.6868 42.1397 48.1246C41.3729 48.6998 40.4143 49.2749 39.5517 49.85C39.5517 49.85 39.5517 49.85 39.4558 49.85Z" fill="white"/>
<path d="M45.4005 24.352C45.6881 26.269 45.6881 28.282 45.3047 30.2949C45.2088 30.7742 45.113 31.2534 45.0171 31.7327C45.0171 31.9244 44.9213 32.0203 44.9213 32.212C44.442 33.9373 43.8669 35.471 43.0042 36.9088C42.8125 37.1963 42.7166 37.4839 42.5249 37.7715C42.5249 37.7715 42.5249 37.7715 42.4291 37.8673C42.3332 38.059 42.1415 38.2507 42.0457 38.4424C41.9498 38.6342 41.7581 38.8259 41.6623 39.0176C41.5664 39.1134 41.4705 39.2093 41.3747 39.401L41.2788 39.4968C38.4032 42.9476 34.3774 45.1522 29.9681 45.5356C32.9396 44.5771 35.6235 42.7559 37.7323 40.2637L37.8281 40.1678C37.924 40.072 38.0198 39.9761 38.1157 39.7844C38.3074 39.5927 38.4032 39.401 38.4991 39.2093C38.5949 39.0176 38.7866 38.8259 38.8825 38.6341C38.8825 38.6341 38.8825 38.6342 38.9783 38.5383C39.1701 38.2507 39.3618 37.9632 39.4576 37.6756C40.3203 36.2378 40.8954 34.7042 41.3747 32.9788C41.4705 32.7871 41.4705 32.5954 41.4705 32.4995C41.5664 32.0203 41.6623 31.541 41.7581 31.0617C42.7166 24.8312 40.7996 18.7925 36.9654 14.5749C36.7737 14.3832 36.582 14.1915 36.3903 13.9998C33.994 11.6034 31.0225 9.87807 27.5718 9.11124C26.2298 8.82368 24.8879 8.72782 23.5459 8.82368C23.3542 8.82368 23.2584 8.82368 23.0667 8.82368C23.1625 8.82368 23.2584 8.72782 23.3542 8.72782C23.4501 8.72782 23.5459 8.63197 23.5459 8.63197C23.7376 8.63197 23.8335 8.53612 24.0252 8.53612C24.121 8.53612 24.121 8.53612 24.2169 8.44026C24.5045 8.34441 24.6962 8.34441 24.9837 8.24855C25.2713 8.1527 25.463 8.1527 25.7506 8.1527C26.0381 8.05685 26.3257 8.05685 26.6132 8.05685C26.8049 8.05685 26.9966 8.05685 27.1884 7.96099C28.5303 7.86514 29.8723 7.96099 31.2142 8.24855C34.6649 8.91953 37.6364 10.6449 40.0327 13.1371C40.2244 13.3288 40.4162 13.5205 40.6079 13.7122C43.1001 16.6837 44.8254 20.422 45.4005 24.352Z" fill="black"/>
<path d="M41.5656 49.6567L40.4149 50.6156L39.5519 49.8485C39.5519 49.8485 39.6478 49.8485 39.6478 49.7526C39.6478 49.7526 40.4149 49.8485 41.5656 49.6567Z" fill="white"/>
<path d="M38.8814 49.3708L39.4565 49.8501C38.8814 50.1376 38.3063 50.4252 37.7312 50.7128C35.91 51.5754 33.9929 52.1506 31.98 52.4381H31.8841C31.5965 52.4381 31.4048 52.534 31.1173 52.534C32.1717 52.2464 33.1302 51.863 34.0887 51.4796C34.6639 51.192 35.3348 50.9045 35.91 50.521C36.7726 50.0418 37.6353 49.4667 38.498 48.7957C38.498 48.7957 38.498 48.7957 38.5939 48.6998L38.7856 49.1791L38.8814 49.3708Z" fill="white"/>
<path d="M30.9255 52.5331C31.0213 52.5331 31.1172 52.5331 31.213 52.5331C30.3504 52.8207 29.3918 53.0124 28.4333 53.1082H28.3374C27.954 53.1082 27.6665 53.2041 27.283 53.2041C25.5577 53.3958 23.7365 53.2999 21.9152 53.0124C21.5318 52.9165 21.1484 52.9165 20.765 52.8207C17.8894 52.2456 15.2055 51.0953 12.8091 49.5617C12.234 49.1782 11.6589 48.7948 11.0838 48.3156C10.7962 48.1239 10.5086 47.8363 10.2211 47.6446C9.64597 47.1653 9.1667 46.6861 8.68743 46.2068C3.70304 41.1265 0.731577 33.7458 1.01914 25.9817C1.01914 25.6941 1.01914 25.4065 1.01914 25.119C1.11499 24.2563 1.21084 23.4895 1.3067 22.6268C1.40255 21.7641 1.59426 20.9014 1.78597 20.0387C1.88182 19.6553 1.97768 19.1761 2.16938 18.7926C2.26524 18.4092 2.45694 18.0258 2.5528 17.5465C2.64865 17.259 2.7445 16.9714 2.84036 16.6839C2.93621 16.4922 2.93621 16.3963 3.03207 16.2046C3.31963 15.4378 3.70304 14.7668 3.9906 14.0958C4.18231 13.7124 4.37402 13.4248 4.56572 13.0414C7.72889 7.76947 12.6174 3.93533 18.2728 2.40167L18.4645 2.88094C14.2469 4.79801 10.6045 8.05704 8.11231 12.2746C7.9206 12.658 7.72889 12.9456 7.53719 13.329C7.15377 14 6.86621 14.6709 6.57865 15.4378C6.4828 15.6295 6.4828 15.7253 6.38694 15.917C6.29109 16.2046 6.19523 16.4922 6.09938 16.7797C5.90767 17.1631 5.81182 17.5465 5.71597 18.0258C5.62011 18.4092 5.42841 18.8885 5.33255 19.2719C5.14084 20.1346 4.94914 20.9973 4.75743 21.86C4.66158 22.7226 4.56572 23.4895 4.46987 24.3522C4.46987 24.6397 4.46987 24.9273 4.46987 25.2148C4.37402 27.1319 4.56572 29.049 4.85328 30.8702C5.81182 36.4297 8.39987 41.51 12.1382 45.3441C12.6174 45.8234 13.1926 46.3026 13.6718 46.7819C13.9594 46.9736 14.2469 47.2612 14.5345 47.4529C15.1096 47.9321 15.6847 48.3156 16.2599 48.699C18.6562 50.2326 21.3401 51.3829 24.2157 51.958C24.5991 52.0539 24.9826 52.1497 25.366 52.1497C27.3789 52.629 29.2001 52.7248 30.9255 52.5331Z" fill="black"/>
<path d="M30.1582 13.7132C30.4457 14.48 30.5416 15.4386 30.3499 16.2054C30.0623 17.4515 28.4328 19.1769 27.1867 17.8349C26.2282 16.7805 26.0365 14.5759 26.6116 13.3298C26.8033 12.7547 27.2826 12.2754 27.8577 12.0837C28.337 11.9879 28.9121 12.0837 29.2955 12.4671C29.6789 12.8505 29.9665 13.234 30.1582 13.7132Z" fill="white"/>
<path d="M25.6529 16.7804C25.7488 17.5473 25.5571 18.3141 25.3654 18.9851C24.2151 23.1068 23.1607 27.3243 22.0105 31.446C21.7229 32.5004 21.3395 33.7465 20.4768 34.4175C17.9846 36.2387 15.78 33.2673 15.4924 31.0626C14.9173 27.3243 15.0132 23.586 16.1634 19.9436C16.6427 18.4099 17.2178 16.9721 18.2722 15.726C19.3266 14.5758 20.8602 13.7131 22.3939 13.809C23.9275 14.0007 25.4612 15.2468 25.6529 16.7804Z" fill="white"/>
<path d="M24.5997 1.2514L24.5039 1.73084C23.6409 1.73084 22.7779 1.73084 21.9149 1.82673C22.1067 1.73084 22.3943 1.73084 22.5861 1.63495L24.5039 1.2514C24.5039 1.2514 24.5039 1.2514 24.5997 1.2514Z" fill="white"/>
<path d="M24.5033 1.34744L22.5855 1.73099C23.1609 1.53922 23.8321 1.44333 24.5033 1.34744Z" fill="white"/>
<path d="M32.3638 1.4433C29.6799 0.868177 27.0919 0.868177 24.5997 1.25159L24.5038 1.73086C23.6412 1.73086 22.7785 1.73086 21.9158 1.82671C20.8614 2.11427 19.807 2.49769 18.7526 2.97696C14.5351 4.89403 10.8926 8.15305 8.40043 12.3706C8.20872 12.754 8.01702 13.0416 7.82531 13.425C7.44189 14.096 7.15433 14.767 6.77092 15.5338C6.67506 15.7255 6.67506 15.8213 6.57921 16.0131C6.48336 16.3006 6.3875 16.5882 6.29165 16.8757C6.09994 17.2591 6.00409 17.6426 5.90824 18.1218C5.81238 18.5052 5.62068 18.9845 5.52482 19.3679C5.33311 20.2306 5.14141 21.0933 4.9497 21.956C4.85385 22.8187 4.75799 23.5855 4.66214 24.4482C4.66214 24.7357 4.66214 25.0233 4.56629 25.3109C4.47043 27.2279 4.66214 29.145 4.9497 30.9662C5.90824 36.5257 8.49628 41.606 12.2346 45.4401C12.7138 45.9194 13.289 46.3987 13.7682 46.8779C14.0558 47.0696 14.3434 47.3572 14.6309 47.5489C15.206 48.0282 15.7812 48.4116 16.3563 48.795C18.7526 50.3286 21.4365 51.4789 24.3121 52.054C24.6955 52.1499 25.079 52.1499 25.4624 52.2457C27.2836 52.5333 29.1048 52.5333 30.8302 52.4374C30.926 52.4374 31.0219 52.4374 31.1177 52.4374C32.1721 52.1499 33.1307 51.7665 34.0892 51.383C34.6643 51.0955 35.3353 50.8079 35.9104 50.4245C36.7731 49.9452 37.6358 49.3701 38.4985 48.6991C38.4985 48.6991 38.4985 48.6991 38.5943 48.6033L38.786 49.1784L38.8819 49.2743L39.457 49.7535L47.0294 43.0438C49.4258 39.7848 51.0553 35.9506 51.7263 31.5413C53.9309 17.6426 45.3041 4.1272 32.3638 1.4433ZM45.3999 30.2952C45.3041 30.7745 45.2082 31.2538 45.1124 31.733C45.1124 31.9248 45.0165 32.0206 45.0165 32.2123C44.6331 33.9377 43.9621 35.4713 43.0994 36.9091C42.9077 37.1967 42.8119 37.4843 42.6202 37.7718C42.6202 37.7718 42.6202 37.7718 42.5243 37.8677C42.4285 38.0594 42.2368 38.2511 42.1409 38.4428C42.0451 38.6345 41.8533 38.8262 41.7575 39.0179C41.6616 39.1138 41.5658 39.2096 41.4699 39.4013L41.3741 39.4972C38.4985 42.9479 34.4726 45.1526 30.0633 45.536C28.6255 45.6318 27.0919 45.536 25.5582 45.2484C16.1646 43.3313 9.83823 33.5543 11.4677 23.3938C11.8512 20.9974 12.618 18.697 13.7682 16.7799C13.8641 16.5882 13.9599 16.4923 14.0558 16.3006C14.4392 15.7255 14.8226 15.1504 15.206 14.5752C15.206 14.4794 15.3019 14.4794 15.3019 14.3835C15.5895 14.0001 15.877 13.7126 16.1646 13.425C16.3563 13.2333 16.548 13.0416 16.6438 12.8499C16.8355 12.6582 17.0273 12.4665 17.219 12.3706C17.7941 11.8913 18.2734 11.4121 18.8485 11.0287C19.0402 10.837 19.3277 10.7411 19.6153 10.5494C19.807 10.4535 19.9987 10.2618 20.2863 10.166C20.478 10.0701 20.6697 9.97427 20.9573 9.87842C21.149 9.78257 21.4365 9.68671 21.6282 9.59086C21.8199 9.495 22.0116 9.39915 22.2992 9.3033C22.5868 9.20744 22.8743 9.11159 23.1619 9.01574C23.2577 9.01574 23.2577 9.01574 23.3536 8.91988C23.4494 8.91988 23.5453 8.82403 23.6412 8.82403C23.737 8.82403 23.8329 8.72817 23.8329 8.72817C23.9287 8.72817 24.1204 8.63232 24.3121 8.63232C24.408 8.63232 24.408 8.63232 24.5038 8.63232C24.7914 8.53647 24.9831 8.53647 25.2707 8.44061C25.5582 8.44061 25.7499 8.34476 26.0375 8.34476C26.3251 8.24891 26.6126 8.24891 26.9002 8.24891C27.0919 8.24891 27.2836 8.24891 27.4753 8.24891C28.8173 8.15305 30.1592 8.24891 31.5012 8.53647C34.9519 9.20744 37.9233 11.0287 40.3197 13.425C40.5114 13.6167 40.7031 13.8084 40.8948 14.0001C43.4829 16.8757 45.2082 20.5182 45.6875 24.4482C45.6875 26.2694 45.6875 28.2823 45.3999 30.2952Z" fill="white"/>
<path d="M37.4428 3.16866C36.6759 2.8811 35.9091 2.6894 35.1423 2.59354C32.4584 2.01842 29.8703 2.01842 27.3781 2.40184C27.3781 2.40184 25.5569 2.8811 24.6943 2.97696C23.6399 3.26452 22.5855 3.64793 21.5311 4.1272C17.3135 6.04427 13.6711 9.3033 11.1789 13.5209C10.9872 13.9043 10.7955 14.1918 10.6038 14.5752C10.2204 15.2462 9.93279 15.9172 9.64523 16.684C9.54938 16.8757 9.54938 16.9716 9.45352 17.1633C9.35767 17.4509 9.26182 17.7384 9.16596 18.026C8.97426 18.4094 8.8784 18.7928 8.78255 19.2721C8.6867 19.6555 8.49499 20.1348 8.39914 20.5182C8.20743 21.3809 8.01572 22.2435 7.82401 23.1062C7.72816 23.9689 7.63231 24.7357 7.53645 25.5984C7.53645 25.886 7.53645 26.1735 7.53645 26.3652C7.4406 28.2823 7.63231 30.1994 7.91987 32.1165C8.8784 37.676 11.4665 42.7562 15.2047 46.5904C15.684 47.0696 16.2591 47.6448 16.7384 48.0282C17.026 48.2199 17.3135 48.5074 17.6011 48.6991C18.1762 49.1784 18.7513 49.5618 19.3264 49.9452C20.1891 50.5204 21.1477 51.0955 22.1062 51.4789C20.0933 50.8079 18.1762 49.9452 16.4508 48.795C15.8757 48.4116 15.3006 48.0282 14.7255 47.5489C14.4379 47.3572 14.1504 47.0696 13.8628 46.8779C13.2877 46.3987 12.8084 45.9194 12.3291 45.4401C8.59084 41.606 6.0028 36.5257 5.04426 30.9662C4.7567 29.145 4.56499 27.2279 4.66084 25.3109C4.66084 25.0233 4.66084 24.7357 4.7567 24.4482C4.85255 23.6813 4.94841 22.8187 5.04426 21.956C5.14011 21.0933 5.33182 20.2306 5.61938 19.3679C5.71523 18.9845 5.81109 18.5052 6.0028 18.1218C6.09865 17.7384 6.29036 17.355 6.38621 16.8757C6.48206 16.5882 6.57792 16.3006 6.67377 16.0131C6.76962 15.8213 6.76962 15.7255 6.86548 15.5338C7.15304 14.767 7.53645 14.096 7.91987 13.425C8.11158 13.0416 8.30328 12.754 8.49499 12.3706C10.9872 8.15305 14.6296 4.89403 18.8472 2.97696C19.9016 2.49769 20.956 2.11427 22.0103 1.82671C22.873 1.73086 24.6943 1.25159 24.6943 1.25159C27.1864 0.868177 29.8703 0.868177 32.4584 1.4433C34.1838 1.82671 35.9091 2.40183 37.4428 3.16866Z" fill="white"/>
<path d="M22.5872 1.73129C22.3954 1.82718 22.1077 1.82718 21.916 1.92307C21.7242 1.92307 21.6283 1.92307 21.4365 2.01896L22.5872 1.73129Z" fill="black"/>
<path d="M21.4358 1.92309C21.6275 1.92309 21.7233 1.92309 21.915 1.82724C20.8606 2.1148 19.8062 2.49822 18.7519 2.97748L18.5602 2.49822L21.4358 1.92309Z" fill="black"/>
<path d="M21.4358 1.92325L18.5602 2.49837C19.4228 2.30666 20.4772 2.0191 21.4358 1.92325Z" fill="black"/>
<path d="M5.52379 19.4641C5.33208 20.3268 5.14037 21.1895 5.04452 22.0522C4.94867 22.9148 4.85281 23.6817 4.75696 24.5444C4.85281 23.6817 4.94867 22.9148 5.04452 22.0522C5.14037 21.1895 5.23623 20.3268 5.52379 19.4641Z" fill="black"/>
<path d="M1.88208 20.1345C1.69037 20.9972 1.49866 21.8599 1.40281 22.7226C1.30696 23.5853 1.2111 24.3521 1.11525 25.2148C1.2111 24.3521 1.2111 23.5853 1.40281 22.8184C1.49866 21.8599 1.69037 20.9972 1.88208 20.1345Z" fill="black"/>
<path d="M122.657 86.4666C123.903 85.8914 125.149 85.0288 126.204 84.0702C130.134 80.6195 132.626 75.1558 132.626 69.0212C132.626 59.8193 128.182 52.2557 119.494 50.5214C118.643 50.3515 118.157 50.257 117.289 50.2339C117.065 50.2279 116.906 50.2339 116.714 50.2339C116.618 50.2339 116.523 50.2339 116.427 50.2339C115.564 50.2339 114.701 50.3297 113.839 50.5214H113.743C112.88 50.7132 112.018 50.9049 111.251 51.2883C110.1 51.7675 109.046 52.3427 108.088 53.0136C106.362 54.2597 104.828 55.8893 103.582 57.8063C101.569 60.9695 100.323 64.8036 100.323 69.1171C100.323 72.4719 101.09 75.6351 102.432 78.319C102.624 78.7024 102.816 78.99 103.007 79.3734C103.391 80.0444 103.774 80.7153 104.253 81.2905C106.075 83.6868 108.375 85.6039 111.059 86.7541C111.251 86.85 111.442 86.9458 111.538 86.9458C111.73 87.0417 111.826 87.0417 112.018 87.1375C112.401 87.2334 112.784 87.3292 113.168 87.4251C113.359 87.521 113.551 87.521 113.743 87.521C113.839 87.521 114.03 87.6168 114.126 87.6168C114.318 87.6168 114.414 87.7127 114.606 87.7127C115.181 87.8085 115.756 87.8085 116.331 87.8085C116.427 87.8085 116.427 87.8085 116.523 87.8085C118.631 87.9044 120.74 87.3292 122.657 86.4666Z" stroke="black" stroke-miterlimit="10" stroke-linecap="round" stroke-linejoin="round"/>
<path d="M94.5715 38.538C93.9093 38.538 92.8461 38.3463 92.4627 38.2504C91.6959 38.0587 90.9291 37.7711 90.2581 37.3877C90.0664 37.2919 89.8747 37.196 89.683 37.1002C86.5198 35.1831 84.411 31.3489 84.411 26.9397C84.411 22.5304 86.5198 18.6963 89.683 16.7792C90.8332 16.0124 91.9469 15.6635 93.5171 15.4372C94.296 15.325 95.593 15.3353 96.872 15.6289C102.043 16.816 104.54 21.3802 104.54 26.8438C104.54 28.3775 104.253 29.8153 103.773 31.1572C102.911 33.4577 101.473 35.4706 99.8434 36.9084C98.0642 38.193 96.7761 38.4421 95.0508 38.538C94.8591 38.538 94.7632 38.538 94.5715 38.538ZM94.5715 38.538C94.8591 38.538 94.1881 38.538 94.5715 38.538Z" stroke="black" stroke-miterlimit="10" stroke-linecap="round" stroke-linejoin="round"/>
<path d="M91.6954 77.7429C90.5452 75.1549 89.4908 72.1834 89.4908 69.0203C89.4908 64.5151 91.2162 60.3934 93.5167 57.2303" stroke="black" stroke-miterlimit="10" stroke-linecap="round" stroke-linejoin="round"/>
<path d="M80.4802 37.3875H80.576H89.0112" stroke="black" stroke-miterlimit="10" stroke-linecap="round" stroke-linejoin="round"/>
<path d="M89.3959 37.3875L72.7173 52.724L63.6112 52.3406" stroke="black" stroke-miterlimit="10" stroke-linecap="round" stroke-linejoin="round"/>
<path d="M63.6103 52.3412L60.543 53.8748" stroke="black" stroke-miterlimit="10" stroke-linecap="round" stroke-linejoin="round"/>
<path d="M86.9043 107.265L102.145 78.4131L91.697 77.7421L75.977 105.444" stroke="black" stroke-miterlimit="10" stroke-linecap="round" stroke-linejoin="round"/>
<path d="M113.837 50.2324L103.773 31.1576" stroke="black" stroke-miterlimit="10" stroke-linecap="round" stroke-linejoin="round"/>
<path d="M93.4103 38.5048L100.323 51.4777L103.486 57.6123L103.582 57.7082V57.804" stroke="black" stroke-miterlimit="10" stroke-linecap="round" stroke-linejoin="round"/>
<path d="M103.484 57.6129L93.4197 57.2295L86.3265 44.3851" stroke="black" stroke-miterlimit="10" stroke-linecap="round" stroke-linejoin="round"/>
<path d="M93.4216 15.4469L84.3156 15.9164H83.7404C78.5643 16.1081 74.6343 21.2842 74.6343 27.1313C74.6343 31.6364 77.0307 35.5664 80.4814 37.2918" stroke="black" stroke-miterlimit="10" stroke-linecap="round" stroke-linejoin="round"/>
<path d="M63.6112 52.3406L79.5229 38.2501L80.3856 37.4833L80.4815 37.3875" stroke="black" stroke-miterlimit="10" stroke-linecap="round" stroke-linejoin="round"/>
<path d="M89.3945 37.3875H89.0111L80.3843 37.4833" stroke="black" stroke-miterlimit="10" stroke-linecap="round" stroke-linejoin="round"/>
<path d="M72.7168 52.724C72.4293 55.7913 71.3749 60.2964 71.0873 63.3637C65.1444 67.9647 61.5019 70.4569 55.559 75.0579C56.1341 76.2081 56.23 76.3998 56.6134 77.4542C57.0927 77.1666 57.4761 76.7832 57.9554 76.4957C58.6263 76.0164 59.2015 75.633 59.7766 75.1537C60.2558 74.7703 60.831 74.3869 61.3102 74.0035C61.5019 73.9076 61.5978 73.7159 61.7895 73.62C63.0356 72.6615 64.2817 71.703 65.5278 70.8403C65.6237 70.7444 65.8154 70.6486 65.9112 70.5527C66.678 69.9776 67.349 69.4983 68.1158 68.9232C68.9785 68.3481 69.8412 67.6771 70.7997 67.0061C71.0873 66.8144 71.3749 66.6227 71.7583 66.3352C72.1417 66.0476 72.4293 65.8559 72.8127 65.5683C73.4836 62.501 73.9629 58.6669 74.538 54.9286C78.468 51.0944 82.398 47.6437 86.328 44.0971C88.341 42.2759 90.3539 40.4547 92.271 38.4418" stroke="black" stroke-miterlimit="10" stroke-linecap="round" stroke-linejoin="round"/>
<path d="M50.5742 74.8671L51.8203 76.8801L56.5171 77.4552" stroke="black" stroke-miterlimit="10" stroke-linecap="round" stroke-linejoin="round"/>
<path d="M38.02 73.9082L39.3619 76.1128L43.3878 76.3045L50.7685 69.0197" stroke="black" stroke-miterlimit="10" stroke-linecap="round" stroke-linejoin="round"/>
<path d="M55.4629 75.058L50.7661 74.6746L53.5458 71.799L56.8048 68.54L60.1597 65.1851L65.6234 59.7214" stroke="black" stroke-miterlimit="10" stroke-linecap="round" stroke-linejoin="round"/>
<path d="M49.2348 66.9112L42.1417 74.1961L38.02 73.9085L45.7841 63.6522" stroke="black" stroke-miterlimit="10" stroke-linecap="round" stroke-linejoin="round"/>
<path d="M40.4149 50.6165C39.2646 52.917 39.2646 55.4092 40.6066 56.9428C42.1402 58.6682 44.8241 58.9557 47.6039 57.9014C48.5624 57.4221 50.5754 56.0801 51.438 55.3133C54.5054 52.3419 55.4639 48.1243 53.5468 45.728C52.3007 44.2901 50.0961 43.8109 47.7956 44.386" stroke="black" stroke-miterlimit="10" stroke-linecap="round" stroke-linejoin="round"/>
<path d="M76.5515 72.1826C76.5515 72.2785 76.5515 72.2785 76.5515 72.1826ZM76.5515 72.1826C78.4686 74.3873 77.7018 78.1256 75.1137 81.097C74.7303 81.4805 74.0982 82.2775 73.3051 82.8671C72.608 83.3852 71.3754 83.9726 71.3754 83.9726C68.404 85.4105 65.3366 85.2187 63.7071 83.3017" stroke="black" stroke-miterlimit="10" stroke-linecap="round" stroke-linejoin="round"/>
<path d="M63.6104 83.2055L58.234 76.9464" stroke="black" stroke-miterlimit="10" stroke-linecap="round" stroke-linejoin="round"/>
<path d="M53.5459 71.7996L50.9578 68.8282L49.2325 66.9111L46.1651 63.3645L40.6056 56.9423" stroke="black" stroke-miterlimit="10" stroke-linecap="round" stroke-linejoin="round"/>
<path d="M76.5511 72.1822L71.6902 66.7198" stroke="black" stroke-miterlimit="10" stroke-linecap="round" stroke-linejoin="round"/>
<path d="M65.6254 59.7222L60.5452 53.8751L59.6825 53.0125L54.0779 46.5321" stroke="black" stroke-miterlimit="10" stroke-linecap="round" stroke-linejoin="round"/>
<mask id="mask0_4909_112467" style="mask-type:alpha" maskUnits="userSpaceOnUse" x="23" y="0" width="125" height="123">
<path d="M70.171 0.414648L24.3911 45.7972C23.9198 46.2645 23.6579 46.8932 23.6579 47.5509V121.598C23.6579 122.371 24.2922 123 25.072 123H99.7676C100.431 123 101.065 122.74 101.537 122.273L147.317 76.8906C147.637 76.5733 147.794 76.1176 147.718 75.6676C144.75 57.3346 136.138 39.74 121.892 25.6182C107.647 11.4964 89.8982 2.95865 71.4047 0.0166056M70.171 0.414648L70.5198 0.772896L24.7431 46.1523C24.3661 46.526 24.1579 47.0272 24.1579 47.5509V121.598C24.1579 122.091 24.5642 122.5 25.072 122.5H99.7676C100.3 122.5 100.807 122.292 101.185 121.918L146.965 76.5355C147.174 76.3275 147.273 76.0331 147.225 75.7505L147.225 75.7475C144.273 57.516 135.709 40.0186 121.54 25.9733C107.372 11.9282 89.7208 3.43697 71.3273 0.510585M70.171 0.414648L70.523 0.769739L70.5212 0.771554C70.7361 0.563106 71.038 0.466229 71.3273 0.510585M70.171 0.414648C70.4969 0.0973678 70.9566 -0.052619 71.4047 0.0166056M71.3273 0.510585C71.3277 0.510638 71.328 0.51069 71.3284 0.510743L71.4047 0.0166056M71.3273 0.510585C71.3269 0.510522 71.3265 0.510459 71.3261 0.510396L71.4047 0.0166056" fill="#00BA96" stroke="black"/>
</mask>
<g mask="url(#mask0_4909_112467)">
<path d="M105.689 119.438C107.414 121.451 108.852 123.656 110.098 125.956L111.248 134.775C111.248 134.775 49.752 139.088 50.0396 138.13C50.3271 137.171 44.2399 113.009 44.2399 113.009C46.418 109.079 61.2442 105.454 72.7667 105.473C78.3308 105.483 83.3548 106.306 86.9014 107.265C94.1863 109.278 100.8 113.591 105.689 119.438Z" stroke="black" stroke-miterlimit="10" stroke-linecap="round" stroke-linejoin="round"/>
</g>
<path d="M48.561 46.3018L49.9029 48.9857C50.5739 50.5194 50.2864 52.053 48.7527 53.395C47.1232 54.7369 45.3978 54.7369 44.1517 53.8743L40.3176 50.6152L39.4549 49.8484" stroke="black" stroke-miterlimit="10" stroke-linecap="round" stroke-linejoin="round"/>
<path d="M94.8594 32.1166C92.3672 32.1166 90.2584 29.7203 90.2584 26.8446C90.2584 23.969 92.2714 21.5727 94.8594 21.5727C97.4474 21.5727 99.4604 23.969 99.4604 26.8446" stroke="black" stroke-miterlimit="10" stroke-linecap="round" stroke-linejoin="round"/>
<path d="M72.7162 52.7264L74.4421 55.1236" stroke="black" stroke-miterlimit="10" stroke-linecap="round" stroke-linejoin="round"/>
<path d="M42.1396 74.1953L43.3862 76.3048" stroke="black" stroke-miterlimit="10" stroke-linecap="round" stroke-linejoin="round"/>
<path d="M1.97716 20.2265C2.25705 19.3545 2.72668 17.7601 3.31888 16.3013C3.65914 15.4631 3.894 14.8635 4.27741 14.1925C4.46912 13.8091 4.66083 13.5215 4.85253 13.1381C8.0157 7.86615 12.9042 4.12786 18.5596 2.49834C19.2041 2.28351 19.9556 2.12218 20.6942 2.01434" stroke="black" stroke-miterlimit="10" stroke-linecap="round" stroke-linejoin="round"/>
<path d="M23.1616 8.75114C24.5036 8.65528 26.3248 8.82334 27.6667 9.11091C31.1175 9.78188 34.0889 11.5072 36.4853 13.9994C36.677 14.1911 36.8687 14.3829 37.0604 14.5746C40.8945 18.7921 42.8116 24.8309 41.8531 31.0614C41.7572 31.5407 41.5655 32.4992 41.4697 32.9785C40.9904 34.7038 40.5262 35.9499 39.5526 37.6753C39.2055 38.2904 38.5941 39.2089 38.5941 39.2089C38.5941 39.2089 38.1437 39.8645 37.8272 40.2633C35.7668 42.8606 33.5613 44.2088 30.9385 45.2248" stroke="black" stroke-miterlimit="10" stroke-linecap="round" stroke-linejoin="round"/>
<path d="M1.11431 26.0775C1.21016 25.2149 1.34518 23.6847 1.40187 22.8185M1.11431 26.0775C1.11431 25.2149 1.25081 23.6679 1.40187 22.8185M1.11431 26.0775C0.814534 33.2571 3.79821 41.1266 8.7826 46.3027C9.26187 46.7819 9.83699 47.2612 10.3163 47.7405C10.6038 47.9322 10.8914 48.2197 11.1789 48.4114C11.7541 48.8907 12.3292 49.2741 12.9043 49.6575C15.3006 51.1912 17.9845 52.3414 20.8602 52.9166C21.2436 53.0124 21.5596 53.0438 22.0104 53.1083C24.0869 53.4053 25.2923 53.5214 27.3782 53.3C28.9391 53.1343 30.4455 52.6481 31.3082 52.4564M1.40187 22.8185C1.62647 21.8078 1.97699 20.2305 1.97699 20.2305" stroke="black" stroke-miterlimit="10" stroke-linecap="round" stroke-linejoin="round"/>
<path d="M5.04426 30.966C6.11898 37.202 8.59084 41.6057 12.3291 45.4399C12.8084 45.9191 13.3835 46.3984 13.8628 46.8777C14.1504 47.0694 14.4379 47.3569 14.7255 47.5486C15.3006 48.0279 15.8757 48.4113 16.4508 48.7947C18.8472 50.3284 21.5311 51.4786 24.4067 52.0538C24.7901 52.1496 25.1735 52.2455 25.5569 52.2455C27.3782 52.533 29.4869 52.533 31.2123 52.4372C32.075 52.3413 31.2123 52.4372 32.075 52.3413C34.0879 52.0538 36.005 51.4786 37.8262 50.616C38.4013 50.3284 38.9764 50.0408 39.5516 49.7533C39.5516 49.7533 39.6474 49.7533 39.6474 49.6574C40.5101 49.1782 41.3728 48.603 42.2355 47.9321C44.0567 46.4943 45.6862 44.8647 47.124 42.9477C49.5203 39.6886 51.1499 35.8545 51.8208 31.4452C54.0255 17.4506 45.3028 3.93524 32.3625 1.25134C29.6786 0.676221 27.0906 0.676221 24.5984 1.05964C23.9274 1.15549 22.5855 1.44305 21.9145 1.63476C20.8601 1.92232 19.8057 2.30573 18.7513 2.785C14.5338 4.70207 11.1466 7.46137 8.39914 12.1787C7.7082 13.3649 7.38841 14.0725 6.86548 15.3418C4.52556 21.0216 4.24903 26.3517 5.04426 30.966Z" stroke="black" stroke-miterlimit="10" stroke-linecap="round" stroke-linejoin="round"/>
<path d="M23.1611 8.72782C23.605 8.59612 23.8622 8.55256 24.3114 8.44026C24.6108 8.3654 25.2414 8.23614 25.845 8.1527C26.1808 8.10629 26.9953 7.96099 27.2828 7.96099C28.6248 7.86514 29.9667 7.96099 31.3087 8.24855C34.7594 8.91953 37.7309 10.6449 40.1272 13.1371C40.3189 13.3288 40.5106 13.5205 40.7023 13.7122C43.2904 16.5878 45.0158 20.2303 45.495 24.1603C45.7826 26.0773 45.7826 28.0903 45.3992 30.1032C45.3033 30.5825 45.2075 31.0617 45.1116 31.541C45.1116 31.7327 45.0158 31.8286 45.0158 32.0203C44.5365 33.7456 44.0722 34.9917 43.0987 36.7171C42.7516 37.3322 42.5386 37.6676 42.1401 38.2507C41.8529 38.6711 41.6893 38.9059 41.3733 39.3051C38.2661 43.2317 34.4719 44.9605 30.0626 45.3439C28.6248 45.4398 27.0911 45.3439 25.5575 45.0563C16.1638 43.1393 9.83747 33.3622 11.467 23.2017C11.8504 20.8054 12.6172 18.5049 13.7675 16.5878C13.8633 16.3961 13.9592 16.3003 14.055 16.1086C14.4384 15.5334 15.7363 13.425 17.2182 12.0827C18.5186 10.9048 20.1222 9.81228 22.2984 9.01538C22.6319 8.89327 22.8207 8.82884 23.1611 8.72782Z" stroke="black" stroke-miterlimit="10" stroke-linecap="round" stroke-linejoin="round"/>
<path d="M39.6472 49.7528C39.6472 49.7528 40.414 49.7528 41.5643 49.6569C43.5772 49.3693 46.6287 48.5671 48.5458 46.2666L47.7947 44.5767L47.1238 43.1389C47.1238 43.1389 43.1938 49.0818 39.6472 49.7528Z" stroke="black" stroke-miterlimit="10" stroke-linecap="round" stroke-linejoin="round"/>
<path d="M126.777 69.1182C126.777 74.1026 123.806 78.416 119.876 79.6621C119.109 79.9497 118.246 80.0455 117.479 80.0455C115.658 80.0455 113.837 79.3745 112.399 78.3202C109.811 76.4031 108.086 73.0482 108.086 69.1182C108.086 65.1882 109.907 61.7375 112.591 59.8204C114.029 58.8619 115.658 58.2867 117.479 58.2867C117.767 58.2867 118.15 58.2867 118.438 58.3826C118.917 58.4784 119.492 58.5743 119.972 58.6702C123.806 59.8204 126.777 64.038 126.777 69.1182Z" fill="white"/>
<path d="M123.04 77.7416C122.082 78.6043 121.028 79.1794 119.877 79.5628C119.11 79.8504 118.248 79.9462 117.481 79.9462C115.66 79.9462 113.839 79.2752 112.401 78.2209C109.813 76.3038 108.087 72.9489 108.087 69.0189C108.087 65.0889 109.909 61.6382 112.592 59.7211C114.03 58.7626 115.66 58.1874 117.481 58.1874C117.769 58.1874 118.152 58.1874 118.44 58.2833C118.919 58.3791 119.494 58.475 119.973 58.5709C123.999 59.817 126.875 64.0345 126.875 69.1148C126.875 71.2235 126.395 73.2365 125.437 74.866" stroke="black" stroke-miterlimit="10" stroke-linecap="round" stroke-linejoin="round"/>
</svg>
