<svg width="130" height="130" viewBox="0 0 130 130" fill="none" xmlns="http://www.w3.org/2000/svg">
<path d="M65.5119 9.0826V5.35674C65.5119 4.52877 64.7874 3.90779 63.9595 4.01129C33.1176 7.53016 9.10645 33.7147 9.10645 65.4881H5.38058C4.55261 65.4881 3.93163 66.2126 4.03513 67.0405C7.554 97.8824 33.7386 121.894 65.5119 121.894V125.619C65.5119 126.447 66.2364 127.068 67.0644 126.965C97.9063 123.446 121.917 97.2614 121.917 65.4881H125.643C126.471 65.4881 127.092 64.7636 126.989 63.9356C123.573 32.9902 97.2853 9.0826 65.5119 9.0826Z" fill="white"/>
<path d="M96.353 32.8867C83.1055 31.8518 74.4118 40.1315 66.339 48.9287C65.7181 48.3077 65.0971 47.7902 64.4761 47.1692C55.6789 38.8895 47.2957 31.1273 35.6007 30.1958C19.0412 28.8504 4.44827 41.2699 3.10281 57.8293C1.75736 74.3887 14.1769 88.9817 30.7363 90.3272C44.8118 91.4656 56.8174 81.4265 67.4775 71.0769C67.6845 71.2839 67.8915 71.4908 67.8915 71.4908C73.9978 76.7692 81.6565 82.2545 92.3166 83.1859C106.185 84.3244 118.398 73.9748 119.536 60.1063C120.571 46.2377 110.221 34.0252 96.353 32.8867ZM36.4286 67.8685C31.4608 67.4545 27.7349 63.1076 28.1489 58.1398C28.5629 53.172 32.9097 49.4461 37.8776 49.8601C44.2943 50.4811 48.9517 54.621 53.9195 58.9678C54.437 59.3818 54.9545 59.8993 55.4719 60.3132C50.0901 65.1776 44.0873 68.4895 36.4286 67.8685ZM92.6271 64.1426C88.2803 63.8321 83.9334 62.2797 79.4831 59.4853L79.3796 59.2783C84.5544 54.5175 89.3152 51.3091 93.5586 51.6196C96.9739 51.93 99.5614 54.9314 99.2509 58.3468C99.0439 61.8657 96.0425 64.4531 92.6271 64.1426Z" fill="white"/>
<path d="M38.188 46.4448C28.9769 46.9623 27.5279 54.621 28.1489 59.1748C28.7699 52.3441 33.4272 49.4462 37.9811 49.8602C44.5013 50.4811 49.1587 54.621 54.023 58.8643C54.23 58.9678 55.2649 60.1063 55.4719 60.3133C55.8859 60.0028 56.2999 59.5888 56.7139 59.2783C56.1964 58.8643 48.5377 45.9273 38.188 46.4448Z" fill="white" stroke="black" stroke-miterlimit="10" stroke-linecap="round" stroke-linejoin="round"/>
<path d="M93.869 49.7567C89.6257 49.4462 84.8648 52.6545 79.69 57.4154L79.7935 57.6224C80.2075 57.8294 80.518 58.0364 80.932 58.2433C85.5893 54.1035 89.9362 51.5161 93.869 51.8266C96.9739 52.0336 99.3543 54.5175 99.5613 57.5189C99.6648 57.2084 99.6648 56.8979 99.7683 56.5874C99.8718 53.0685 97.3879 49.9636 93.869 49.7567Z" fill="black" stroke="black" stroke-miterlimit="10" stroke-linecap="round" stroke-linejoin="round"/>
<path d="M92.7306 79.9776C82.0704 79.7706 74.2047 74.8028 68.0984 69.5245C68.0984 69.5245 67.8914 69.3175 67.6845 69.1105C57.0243 79.4601 45.8467 87.6363 31.6677 86.4979C15.4188 85.1524 2.58136 72.9399 3.40933 56.7944C3.40933 57.1049 3.31618 57.4154 3.31618 57.8294C1.97073 74.3888 14.2804 88.9818 30.8398 90.3272C44.9153 91.4657 56.9208 81.4266 67.581 71.0769C67.7879 71.2839 67.9949 71.4909 67.9949 71.4909C74.1012 76.7692 81.76 82.2545 92.4201 83.186C106.289 84.3244 118.301 73.9748 119.439 60.1063L119.491 59.0714C117.731 70.249 106.392 80.2881 92.7306 79.9776Z" fill="black" stroke="black" stroke-miterlimit="10" stroke-linecap="round" stroke-linejoin="round"/>
<path d="M28.1488 58.0363C27.7348 63.1076 31.4607 67.4544 36.532 67.8684C61.1641 69.9384 68.5124 30.7133 96.4563 32.9902C110.325 34.1286 120.571 46.2377 119.433 60.1062C118.294 73.9747 106.185 84.2208 92.3165 83.0824C82.1739 82.2544 74.7221 77.2866 67.9949 71.3873" stroke="black" stroke-miterlimit="10" stroke-linecap="round" stroke-linejoin="round"/>
<path d="M79.5865 59.5887C83.6228 62.0727 87.9697 63.8321 92.7305 64.2461C96.2494 64.5566 99.2508 61.9692 99.5613 58.4503C99.8718 54.9314 97.2843 51.93 93.7655 51.6195C78.862 50.3776 58.5767 92.5006 30.8397 90.2236C14.2803 88.8782 1.96427 74.2852 3.30972 57.8293C4.65518 41.3734 19.1447 28.9538 35.7041 30.2993C48.2271 31.3343 57.1278 40.4419 66.4425 49.0321" stroke="black" stroke-miterlimit="10" stroke-linecap="round" stroke-linejoin="round"/>
<path d="M31.7713 82.565C22.4566 81.8405 14.7979 75.7342 11.486 67.6615" stroke="black" stroke-miterlimit="10" stroke-linecap="round" stroke-linejoin="round"/>
<path d="M62.1992 68.9034C66.0285 66.523 83.8299 43.2363 98.7333 44.1678C110.014 45.0993 119.226 53.586 117.363 68.3859" stroke="black" stroke-miterlimit="10" stroke-linecap="round" stroke-linejoin="round"/>
<path d="M67.6844 69.1105L79.9034 57.2083L81.9669 56.4839L81.0419 58.1399L67.4775 71.0769L67.6844 69.1105Z" fill="black" stroke="black" stroke-miterlimit="10" stroke-linecap="round" stroke-linejoin="round"/>
<path d="M84.3473 38.165C77.413 41.8909 71.5137 48.2042 67.5809 53.172C66.8564 54.1035 68.0984 55.2419 68.9263 54.5175C74.2047 49.9636 81.5529 43.7538 86.1067 41.1664C86.8312 40.7524 87.1417 39.821 86.8312 38.993C86.3137 38.0615 85.2788 37.6476 84.3473 38.165Z" fill="white"/>
<path d="M89.1081 37.9581C89.4186 38.786 90.2465 39.3035 91.178 39.0965C95.7318 37.8546 100.079 38.1651 103.598 38.8895C104.84 39.0965 105.357 37.4406 104.219 36.9231C100.803 35.3707 96.0423 34.4392 90.35 35.8881C89.3151 36.0951 88.7976 37.0266 89.1081 37.9581Z" fill="white"/>
<path d="M18.6273 62.2796C17.3853 60.0027 13.7629 61.4517 14.4874 63.9356C15.5224 67.6614 17.9028 71.5943 22.7671 74.4922C27.2175 77.1831 31.5643 77.9076 35.3937 77.8041C38.4985 77.7006 38.7055 73.1468 35.6007 72.7328C31.8748 72.2153 28.0454 71.3873 25.458 69.8349C22.6636 68.2824 20.3867 65.488 18.6273 62.2796Z" fill="white"/>
<path d="M27.6319 41.8909C26.183 36.7161 23.5956 32.3692 20.3872 29.3678C24.0095 26.9874 26.9074 23.1581 28.8739 18.5007C30.6333 22.6406 33.1172 26.056 36.0151 28.4364C32.1858 31.4378 29.1844 36.1986 27.6319 41.8909Z" fill="white" stroke="black" stroke-miterlimit="10" stroke-linecap="round" stroke-linejoin="round"/>
<path d="M9.31327 51.93C12.8 51.93 15.6265 48.5474 15.6265 44.3747C15.6265 40.2021 12.8 36.8195 9.31327 36.8195C5.82655 36.8195 3 40.2021 3 44.3747C3 48.5474 5.82655 51.93 9.31327 51.93Z" fill="white" stroke="black" stroke-miterlimit="10" stroke-linecap="round" stroke-linejoin="round"/>
<path d="M80.9321 94.6739L82.174 86.8082L45.5364 76.0446L44.2944 83.9103L62.5098 113.614L68.823 106.783L80.9321 115.166L87.9698 108.128L89.1083 100.263L80.9321 94.6739Z" fill="white" stroke="black" stroke-miterlimit="10" stroke-linecap="round" stroke-linejoin="round"/>
<path d="M82.174 86.8082L45.5363 76.0446L63.7516 105.748L69.9614 98.9173L82.0705 107.3L89.1082 100.263L76.9992 91.8795L82.174 86.8082Z" fill="white" stroke="black" stroke-miterlimit="10" stroke-linecap="round" stroke-linejoin="round"/>
<path d="M63.7517 105.748L62.5097 113.614" stroke="black" stroke-miterlimit="10" stroke-linecap="round" stroke-linejoin="round"/>
<path d="M69.9614 98.9172L68.823 106.783" stroke="black" stroke-miterlimit="10" stroke-linecap="round" stroke-linejoin="round"/>
<path d="M80.9321 115.166L82.0706 107.3" stroke="black" stroke-miterlimit="10" stroke-linecap="round" stroke-linejoin="round"/>
</svg>
