<svg width="130" height="130" viewBox="0 0 130 130" fill="none" xmlns="http://www.w3.org/2000/svg">
<g clip-path="url(#clip0_4997_135467)">
<mask id="mask0_4997_135467" style="mask-type:alpha" maskUnits="userSpaceOnUse" x="-5" y="2" width="133" height="126">
<path d="M36.738 2.56968L-4.80826 32.5171C-5.27754 32.9864 3.59982 50.6077 3.59982 51.2686L1.49994 85.5L3.59982 125.893C3.59982 126.679 4.23191 127.311 5.01723 127.311H79.6419C80.3028 127.311 80.9349 127.042 81.4041 126.583L127.144 80.8426C127.47 80.517 127.613 80.0573 127.546 79.6072C124.587 61.133 115.977 43.3962 101.746 29.1646C87.5047 14.9331 69.7775 6.32328 51.2937 3.36396C50.8436 3.28735 37.0636 2.24405 36.738 2.56968Z" fill="#FFB16E"/>
</mask>
<g mask="url(#mask0_4997_135467)">
<path d="M50.0679 3.76624L4.32771 49.5064C3.85843 49.9757 3.59985 50.6078 3.59985 51.2686V125.893C3.59985 126.679 4.23194 127.311 5.01726 127.311H79.6419C80.3028 127.311 80.9349 127.043 81.4041 126.583L127.144 80.8427C127.47 80.517 127.614 80.0573 127.547 79.6072C124.587 61.133 115.977 43.3962 101.746 29.1647C87.5047 14.9331 69.7775 6.32332 51.2938 3.364C50.8436 3.28739 50.3935 3.44062 50.0679 3.76624Z" fill="white"/>
<path d="M22.1794 101.816L46.4669 116.326L21.1547 95.7063C21.3271 96.4246 21.4899 97.1812 21.6335 97.9761C21.8825 99.3264 22.0549 100.61 22.1794 101.816Z" fill="black" stroke="black" stroke-width="0.957709" stroke-miterlimit="10" stroke-linecap="round" stroke-linejoin="round"/>
<path d="M66.8086 106.921L67.2587 110.445C73.1774 108.137 79.2588 105.619 85.4743 102.86C96.67 97.8898 107.052 92.7086 116.609 87.4987C116.609 85.7844 116.609 84.0701 116.609 82.3462L66.8086 106.921Z" fill="black" stroke="black" stroke-width="0.957709" stroke-miterlimit="10" stroke-linecap="round" stroke-linejoin="round"/>
<path d="M74.9778 113.97L117.002 91.8371" stroke="black" stroke-width="0.957709" stroke-miterlimit="10" stroke-linecap="round" stroke-linejoin="round"/>
<path d="M22.7923 106.107L49.6464 127.311L61.3592 121.143" stroke="black" stroke-width="0.957709" stroke-miterlimit="10" stroke-linecap="round" stroke-linejoin="round"/>
<path d="M29.0749 117.226L42.7222 127.904" stroke="black" stroke-width="0.957709" stroke-miterlimit="10" stroke-linecap="round" stroke-linejoin="round"/>
<path d="M64.9315 125.721L103.288 105.513" stroke="black" stroke-width="0.957709" stroke-miterlimit="10" stroke-linecap="round" stroke-linejoin="round"/>
<path d="M20.714 94.5282C22.3613 97.4014 23.7595 118.164 23.2998 125.711" stroke="black" stroke-width="0.957709" stroke-miterlimit="10" stroke-linecap="round" stroke-linejoin="round"/>
<path d="M116.609 83.2752V92.9289" stroke="black" stroke-width="0.957709" stroke-miterlimit="10" stroke-linecap="round" stroke-linejoin="round"/>
<path d="M49.6464 118.548V127.311" stroke="black" stroke-width="0.957709" stroke-miterlimit="10" stroke-linecap="round" stroke-linejoin="round"/>
<path d="M18.6454 95.0645L50.2977 119.256L120.038 83.0261L79.6036 45.4456C75.2843 57.4936 31.833 84.07 18.6454 95.0645Z" fill="white" stroke="#171A22" stroke-width="0.957709" stroke-miterlimit="10" stroke-linecap="round" stroke-linejoin="round"/>
<path d="M66.8086 64.6669L73.3689 60.0603L78.7225 65.6342" stroke="black" stroke-width="0.957709" stroke-miterlimit="10" stroke-linecap="round" stroke-linejoin="round"/>
<path d="M99.4282 90.7645L104.667 87.9967L99.8783 83.0262" stroke="black" stroke-width="0.957709" stroke-miterlimit="10" stroke-linecap="round" stroke-linejoin="round"/>
<path d="M56.1111 112.447L51.8684 115.512L48.1429 112.437" stroke="black" stroke-width="0.957709" stroke-miterlimit="10" stroke-linecap="round" stroke-linejoin="round"/>
<path d="M90.9236 87.489L89.2668 88.3989L81.9212 81.1873L78.665 77.9886L70.8884 70.3652L72.4973 69.2734L71.463 68.2487L62.8819 74.1098L63.9067 75.0771L65.4773 74.0141L71.5971 79.8848L44.4939 96.7597L42.454 95.0262L39.6575 96.798L50.154 105.81L53.0271 104L50.5083 101.855L77.1901 85.2384L83.6833 91.4635L82.0457 92.3638L82.9746 93.2353L91.8622 88.4084L90.9236 87.489Z" fill="black"/>
<path d="M25.9911 43.8463C21.5282 52.0826 13.1865 56.2008 7.35408 53.0403C1.52164 49.8799 0.420272 40.638 4.8832 32.4113C9.34612 24.175 17.6878 20.0568 23.5202 23.2173C29.3527 26.3777 30.454 35.61 25.9911 43.8463Z" fill="white" stroke="black" stroke-width="0.957709" stroke-miterlimit="10" stroke-linecap="round" stroke-linejoin="round"/>
<path d="M24.88 43.2812C21.5568 49.4105 16.0691 52.8679 12.6309 51.0003C9.19276 49.1328 9.08741 42.6491 12.4202 36.5198C15.7435 30.3904 21.2312 26.9331 24.6693 28.8006C28.1075 30.6682 28.2033 37.1519 24.88 43.2812Z" fill="black"/>
<path d="M29.6305 37.9947C29.4581 37.8989 29.257 37.8414 29.0654 37.8031C29.0558 37.8031 29.0367 37.8031 29.0271 37.8031C28.9697 37.7936 28.9218 37.7936 28.8643 37.784C28.0024 37.6882 26.6233 37.4201 25.158 36.5773C23.9608 35.8877 23.1372 35.0737 22.6105 34.4416C22.5434 34.3458 22.4668 34.25 22.3902 34.1638C22.3806 34.1543 22.371 34.1351 22.3615 34.1255C22.3615 34.1255 22.3615 34.1255 22.3615 34.1351C22.237 34.0202 22.1125 33.9053 21.9592 33.8286C20.2737 32.9092 17.4293 34.8917 15.6096 38.2437C13.79 41.5957 13.6846 45.0626 15.3798 45.9724C15.5713 46.0777 15.7724 46.1352 15.9927 46.1639C16.0023 46.1639 16.0214 46.1639 16.031 46.1639C16.0502 46.1639 16.0789 46.1735 16.098 46.1735C16.8451 46.2406 17.8411 46.4225 18.9329 46.9014C20.7142 47.6771 21.8539 48.8359 22.4668 49.583C22.5051 49.6308 22.5434 49.6883 22.5913 49.7266C22.6009 49.7362 22.6105 49.7458 22.62 49.7553C22.7541 49.899 22.9074 50.0235 23.0797 50.1193C24.7653 51.0387 27.6097 49.0562 29.4294 45.7042C31.2107 42.3714 31.316 38.9141 29.6305 37.9947Z" fill="white" stroke="black" stroke-width="0.957709" stroke-miterlimit="10" stroke-linecap="round" stroke-linejoin="round"/>
<path d="M55.5842 15.4694V12.5388L48.6025 10.2978C44.9919 9.13896 41.0653 10.6617 39.1787 13.9562L4.04031 75.2496C2.41221 78.094 2.67079 81.6471 4.70113 84.2233L10.524 91.6073L55.5842 15.4694Z" fill="white" stroke="black" stroke-width="0.957709" stroke-miterlimit="10" stroke-linecap="round" stroke-linejoin="round"/>
<path d="M32.8675 97.7845L12.6503 92.7661C9.55688 92 8.05328 88.4947 9.63349 85.727L50.0775 14.7703C51.6099 12.0792 55.2492 11.5237 57.5189 13.6306L72.8519 27.843C74.4991 29.3658 74.863 31.8175 73.7521 33.7617L38.1924 95.5243C37.1197 97.3727 34.9553 98.3017 32.8675 97.7845Z" fill="white" stroke="black" stroke-width="0.957709" stroke-miterlimit="10" stroke-linecap="round" stroke-linejoin="round"/>
<path d="M58.3808 42.266L57.72 43.4153L52.8261 39.9675L50.5946 38.3969L47.3289 36.1079L47.5108 33.9627L45.3464 32.89L40.3472 41.6722L42.4158 42.8885L43.7375 42.3809L47.166 44.3634L29.6017 75.1442L26.6328 73.8513L25.7038 75.2687L28.0023 77.5767L35.3096 80.1626L36.162 78.6877L34.3806 77.0213L51.5236 46.8917L54.6745 48.7114L53.803 50.2341L56.7336 51.9772L60.7559 43.4919L58.3808 42.266Z" stroke="black" stroke-width="0.957709" stroke-miterlimit="10" stroke-linecap="round" stroke-linejoin="round"/>
<path d="M60.756 43.4919L59.9132 44.9668L55.0098 41.519L52.7879 39.9484L47.3289 36.108L48.2483 34.499L47.5109 33.9627L42.4159 42.8886L43.1725 43.377L44.1302 41.6914L49.7041 45.3211L31.5459 77.0213L28.8739 76.0444L28.0024 77.5768L35.3097 80.1626L36.1621 78.6877L34.103 77.979L51.9834 46.796L56.9922 50.0522L56.1111 51.5845L56.7336 51.9772L61.3594 43.9325L60.756 43.4919Z" fill="black" stroke="black" stroke-width="0.957709" stroke-miterlimit="10" stroke-linecap="round" stroke-linejoin="round"/>
<path d="M28.8738 76.0444L26.6327 73.8513" stroke="black" stroke-width="0.957709" stroke-miterlimit="10" stroke-linecap="round" stroke-linejoin="round"/>
<path d="M47.3002 29.6434L52.0025 21.4167L55.5843 24.4048" stroke="black" stroke-width="1.91542" stroke-miterlimit="10" stroke-linecap="round" stroke-linejoin="round"/>
<path d="M20.9535 75.7955L16.3374 83.8786L20.8003 85.2289" stroke="black" stroke-width="1.91542" stroke-miterlimit="10" stroke-linecap="round" stroke-linejoin="round"/>
<path d="M64.3665 42.4193L68.523 35.1886L65.602 32.7465" stroke="black" stroke-width="1.91542" stroke-miterlimit="10" stroke-linecap="round" stroke-linejoin="round"/>
<path d="M41.008 83.0262L36.9186 90.142L33.2697 89.0311" stroke="black" stroke-width="1.91542" stroke-miterlimit="10" stroke-linecap="round" stroke-linejoin="round"/>
</g>
</g>
<defs>
<clipPath id="clip0_4997_135467">
<rect width="130" height="130" fill="white"/>
</clipPath>
</defs>
</svg>
