<svg width="454" height="382" viewBox="0 0 454 382" fill="none" xmlns="http://www.w3.org/2000/svg">
<path d="M444 0H10C4.47715 0 0 4.47715 0 10V372C0 377.523 4.47715 382 10 382H444C449.523 382 454 377.523 454 372V10C454 4.47715 449.523 0 444 0Z" fill="white"/>
<path d="M427.952 16H26.0476C20.4985 16 16 20.6637 16 26.4167V355.583C16 361.336 20.4985 366 26.0476 366H427.952C433.502 366 438 361.336 438 355.583V26.4167C438 20.6637 433.502 16 427.952 16Z" fill="#F4F5F9"/>
<g filter="url(#filter0_d_4997_135788)">
<path d="M36 97C36 94.7909 37.7909 93 40 93H416C418.209 93 420 94.7909 420 97V342C420 344.209 418.209 346 416 346H40C37.7909 346 36 344.209 36 342V97Z" fill="white"/>
</g>
<path d="M367.012 104.728C374.239 113.431 375.437 117.898 373.529 129.05C373.509 129.162 373.641 129.238 373.728 129.165C382.432 121.937 386.899 120.74 398.05 122.648C398.162 122.668 398.238 122.536 398.165 122.449C390.937 113.745 389.74 109.278 391.648 98.127C391.668 98.015 391.536 97.939 391.449 98.0118C382.746 105.239 378.279 106.437 367.127 104.529C367.015 104.509 366.939 104.641 367.012 104.728Z" fill="#C4E5FE"/>
<path d="M29.7585 167.305C37.0644 165.536 40.0805 166.127 46.1774 170.525C46.2386 170.569 46.3224 170.513 46.3045 170.44C44.5353 163.133 45.1267 160.118 49.525 154.021C49.5693 153.959 49.5129 153.876 49.4395 153.893C42.1329 155.663 39.1175 155.071 33.0206 150.673C32.9594 150.629 32.8756 150.685 32.8934 150.758C34.6623 158.064 34.0713 161.081 29.673 167.177C29.6287 167.239 29.6851 167.322 29.7585 167.305Z" fill="#C4E5FE"/>
<path d="M283.675 125.507C286.283 118.456 288.455 116.283 295.507 113.676C295.577 113.65 295.577 113.549 295.507 113.523C288.455 110.915 286.283 108.743 283.675 101.691C283.649 101.62 283.548 101.62 283.522 101.691C280.915 108.743 278.742 110.915 271.691 113.523C271.62 113.549 271.62 113.65 271.691 113.676C278.742 116.283 280.915 118.456 283.522 125.507C283.548 125.578 283.649 125.578 283.675 125.507Z" fill="#C4E5FE"/>
<path d="M406.833 196.087C408.949 193.098 410.245 192.349 413.892 192.011C413.929 192.008 413.941 191.96 413.911 191.939C410.922 189.823 410.173 188.527 409.836 184.88C409.832 184.843 409.785 184.83 409.764 184.86C407.648 187.85 406.351 188.598 402.704 188.936C402.668 188.939 402.655 188.987 402.685 189.008C405.674 191.124 406.423 192.421 406.761 196.067C406.764 196.104 406.811 196.117 406.833 196.087Z" fill="#E2CAFF"/>
<path d="M60.6946 125.724L57 112.633H59.5504L61.9091 122.253H62.0305L64.549 112.633H66.8693L69.3941 122.26H69.5092L71.8679 112.633H74.4183L70.7237 125.724H68.3842L65.7635 116.538H65.6612L63.0341 125.724H60.6946Z" fill="#898D9A"/>
<path d="M78.2739 119.971V125.724H75.96V112.633H78.2228V117.574H78.3378C78.5679 117.02 78.9237 116.583 79.4053 116.264C79.8911 115.94 80.509 115.778 81.259 115.778C81.9408 115.778 82.5353 115.92 83.0424 116.206C83.5495 116.492 83.9415 116.909 84.2185 117.459C84.4997 118.009 84.6404 118.68 84.6404 119.473V125.724H82.3264V119.831C82.3264 119.17 82.156 118.656 81.8151 118.29C81.4784 117.919 81.0054 117.734 80.396 117.734C79.987 117.734 79.6205 117.823 79.2966 118.002C78.977 118.177 78.7256 118.43 78.5424 118.763C78.3634 119.095 78.2739 119.498 78.2739 119.971Z" fill="#898D9A"/>
<path d="M89.8246 125.921C89.2025 125.921 88.6421 125.81 88.1435 125.589C87.6492 125.363 87.2571 125.031 86.9674 124.592C86.6819 124.153 86.5391 123.611 86.5391 122.968C86.5391 122.414 86.6414 121.956 86.8459 121.594C87.0505 121.232 87.3296 120.942 87.6833 120.724C88.037 120.507 88.4354 120.343 88.8786 120.232C89.326 120.117 89.7884 120.034 90.2657 119.983C90.841 119.923 91.3076 119.87 91.6655 119.823C92.0235 119.772 92.2834 119.695 92.4454 119.593C92.6115 119.486 92.6946 119.322 92.6946 119.101V119.062C92.6946 118.581 92.5519 118.208 92.2664 117.944C91.9809 117.68 91.5696 117.548 91.0327 117.548C90.4659 117.548 90.0164 117.672 89.684 117.919C89.3559 118.166 89.1343 118.458 89.0192 118.794L86.8587 118.488C87.0292 117.891 87.3104 117.392 87.7025 116.992C88.0945 116.587 88.5739 116.284 89.1407 116.084C89.7074 115.88 90.3338 115.777 91.0199 115.777C91.4929 115.777 91.9638 115.833 92.4326 115.944C92.9013 116.054 93.3296 116.238 93.7174 116.493C94.1052 116.745 94.4162 117.088 94.6506 117.522C94.8892 117.957 95.0086 118.5 95.0086 119.152V125.723H92.7841V124.374H92.7074C92.5668 124.647 92.3687 124.903 92.113 125.141C91.8615 125.376 91.5441 125.565 91.1606 125.71C90.7813 125.851 90.336 125.921 89.8246 125.921ZM90.4255 124.221C90.89 124.221 91.2927 124.129 91.6336 123.946C91.9745 123.759 92.2365 123.511 92.4198 123.205C92.6073 122.898 92.701 122.563 92.701 122.201V121.044C92.6286 121.104 92.505 121.159 92.3303 121.21C92.1598 121.261 91.9681 121.306 91.755 121.344C91.5419 121.383 91.331 121.417 91.1222 121.447C90.9134 121.477 90.7323 121.502 90.5789 121.523C90.2337 121.57 89.9248 121.647 89.652 121.754C89.3793 121.86 89.1641 122.009 89.0064 122.201C88.8488 122.388 88.7699 122.631 88.7699 122.93C88.7699 123.356 88.9255 123.678 89.2365 123.895C89.5476 124.112 89.9439 124.221 90.4255 124.221Z" fill="#898D9A"/>
<path d="M102.238 115.905V117.695H96.5938V115.905H102.238ZM97.9872 113.553H100.301V122.77C100.301 123.081 100.348 123.32 100.442 123.486C100.54 123.648 100.668 123.759 100.825 123.818C100.983 123.878 101.158 123.908 101.349 123.908C101.494 123.908 101.626 123.897 101.746 123.876C101.869 123.854 101.963 123.835 102.027 123.818L102.417 125.627C102.293 125.67 102.116 125.717 101.886 125.768C101.661 125.819 101.384 125.849 101.055 125.857C100.476 125.874 99.9538 125.787 99.4893 125.595C99.0248 125.399 98.6562 125.097 98.3835 124.687C98.115 124.278 97.9829 123.767 97.9872 123.153V113.553Z" fill="#898D9A"/>
<path d="M108.638 125.724V115.906H110.952V125.724H108.638ZM109.801 114.512C109.435 114.512 109.119 114.391 108.855 114.148C108.591 113.901 108.459 113.604 108.459 113.259C108.459 112.91 108.591 112.614 108.855 112.371C109.119 112.124 109.435 112 109.801 112C110.172 112 110.487 112.124 110.747 112.371C111.011 112.614 111.143 112.91 111.143 113.259C111.143 113.604 111.011 113.901 110.747 114.148C110.487 114.391 110.172 114.512 109.801 114.512Z" fill="#898D9A"/>
<path d="M121.091 118.5L118.982 118.73C118.922 118.517 118.818 118.317 118.668 118.13C118.524 117.942 118.328 117.791 118.08 117.676C117.833 117.561 117.531 117.503 117.173 117.503C116.691 117.503 116.286 117.608 115.958 117.816C115.634 118.025 115.475 118.296 115.479 118.628C115.475 118.913 115.579 119.146 115.792 119.325C116.009 119.504 116.367 119.651 116.866 119.766L118.541 120.124C119.47 120.324 120.16 120.641 120.612 121.076C121.068 121.511 121.298 122.08 121.302 122.783C121.298 123.401 121.117 123.946 120.759 124.419C120.405 124.888 119.913 125.254 119.282 125.518C118.651 125.783 117.927 125.915 117.109 125.915C115.907 125.915 114.94 125.663 114.207 125.16C113.474 124.653 113.037 123.948 112.896 123.045L115.153 122.827C115.255 123.271 115.472 123.605 115.805 123.831C116.137 124.057 116.57 124.17 117.102 124.17C117.652 124.17 118.093 124.057 118.426 123.831C118.762 123.605 118.93 123.326 118.93 122.994C118.93 122.712 118.822 122.48 118.604 122.297C118.391 122.114 118.059 121.973 117.607 121.875L115.933 121.523C114.991 121.327 114.294 120.997 113.842 120.533C113.391 120.064 113.167 119.472 113.171 118.756C113.167 118.151 113.331 117.627 113.663 117.184C114 116.736 114.467 116.391 115.063 116.148C115.664 115.901 116.357 115.777 117.141 115.777C118.291 115.777 119.197 116.022 119.857 116.512C120.522 117.002 120.933 117.665 121.091 118.5Z" fill="#898D9A"/>
<path d="M130.501 125.921C129.879 125.921 129.319 125.81 128.82 125.589C128.326 125.363 127.934 125.031 127.644 124.592C127.358 124.153 127.216 123.611 127.216 122.968C127.216 122.414 127.318 121.956 127.522 121.594C127.727 121.232 128.006 120.942 128.36 120.724C128.713 120.507 129.112 120.343 129.555 120.232C130.003 120.117 130.465 120.034 130.942 119.983C131.517 119.923 131.984 119.87 132.342 119.823C132.7 119.772 132.96 119.695 133.122 119.593C133.288 119.486 133.371 119.322 133.371 119.101V119.062C133.371 118.581 133.228 118.208 132.943 117.944C132.657 117.68 132.246 117.548 131.709 117.548C131.142 117.548 130.693 117.672 130.36 117.919C130.032 118.166 129.811 118.458 129.696 118.794L127.535 118.488C127.706 117.891 127.987 117.392 128.379 116.992C128.771 116.587 129.25 116.284 129.817 116.084C130.384 115.88 131.01 115.777 131.696 115.777C132.169 115.777 132.64 115.833 133.109 115.944C133.578 116.054 134.006 116.238 134.394 116.493C134.782 116.745 135.093 117.088 135.327 117.522C135.566 117.957 135.685 118.5 135.685 119.152V125.723H133.461V124.374H133.384C133.243 124.647 133.045 124.903 132.789 125.141C132.538 125.376 132.221 125.565 131.837 125.71C131.458 125.851 131.012 125.921 130.501 125.921ZM131.102 124.221C131.566 124.221 131.969 124.129 132.31 123.946C132.651 123.759 132.913 123.511 133.096 123.205C133.284 122.898 133.378 122.563 133.378 122.201V121.044C133.305 121.104 133.181 121.159 133.007 121.21C132.836 121.261 132.645 121.306 132.431 121.344C132.218 121.383 132.007 121.417 131.799 121.447C131.59 121.477 131.409 121.502 131.255 121.523C130.91 121.57 130.601 121.647 130.329 121.754C130.056 121.86 129.841 122.009 129.683 122.201C129.525 122.388 129.446 122.631 129.446 122.93C129.446 123.356 129.602 123.678 129.913 123.895C130.224 124.112 130.62 124.221 131.102 124.221Z" fill="#898D9A"/>
<path d="M147.45 115.906V117.696H141.646V115.906H147.45ZM143.097 125.724V114.979C143.097 114.319 143.233 113.769 143.506 113.33C143.783 112.891 144.153 112.563 144.618 112.345C145.082 112.128 145.598 112.02 146.165 112.02C146.565 112.02 146.921 112.051 147.232 112.115C147.543 112.179 147.773 112.237 147.923 112.288L147.462 114.078C147.364 114.048 147.241 114.018 147.092 113.988C146.943 113.954 146.776 113.937 146.593 113.937C146.163 113.937 145.858 114.042 145.679 114.25C145.504 114.455 145.417 114.749 145.417 115.132V125.724H143.097Z" fill="#898D9A"/>
<path d="M153.175 125.915C152.216 125.915 151.386 125.704 150.682 125.282C149.979 124.86 149.434 124.27 149.046 123.511C148.662 122.753 148.471 121.866 148.471 120.852C148.471 119.838 148.662 118.95 149.046 118.187C149.434 117.424 149.979 116.832 150.682 116.41C151.386 115.988 152.216 115.777 153.175 115.777C154.134 115.777 154.965 115.988 155.668 116.41C156.371 116.832 156.915 117.424 157.298 118.187C157.686 118.95 157.88 119.838 157.88 120.852C157.88 121.866 157.686 122.753 157.298 123.511C156.915 124.27 156.371 124.86 155.668 125.282C154.965 125.704 154.134 125.915 153.175 125.915ZM153.188 124.061C153.708 124.061 154.143 123.918 154.492 123.633C154.841 123.343 155.101 122.955 155.272 122.469C155.447 121.984 155.534 121.442 155.534 120.846C155.534 120.245 155.447 119.702 155.272 119.216C155.101 118.726 154.841 118.336 154.492 118.047C154.143 117.757 153.708 117.612 153.188 117.612C152.655 117.612 152.212 117.757 151.859 118.047C151.509 118.336 151.247 118.726 151.072 119.216C150.902 119.702 150.817 120.245 150.817 120.846C150.817 121.442 150.902 121.984 151.072 122.469C151.247 122.955 151.509 123.343 151.859 123.633C152.212 123.918 152.655 124.061 153.188 124.061Z" fill="#898D9A"/>
<path d="M164.126 125.915C163.168 125.915 162.337 125.704 161.634 125.282C160.93 124.86 160.385 124.27 159.997 123.511C159.614 122.753 159.422 121.866 159.422 120.852C159.422 119.838 159.614 118.95 159.997 118.187C160.385 117.424 160.93 116.832 161.634 116.41C162.337 115.988 163.168 115.777 164.126 115.777C165.085 115.777 165.916 115.988 166.619 116.41C167.322 116.832 167.866 117.424 168.249 118.187C168.637 118.95 168.831 119.838 168.831 120.852C168.831 121.866 168.637 122.753 168.249 123.511C167.866 124.27 167.322 124.86 166.619 125.282C165.916 125.704 165.085 125.915 164.126 125.915ZM164.139 124.061C164.659 124.061 165.094 123.918 165.443 123.633C165.793 123.343 166.053 122.955 166.223 122.469C166.398 121.984 166.485 121.442 166.485 120.846C166.485 120.245 166.398 119.702 166.223 119.216C166.053 118.726 165.793 118.336 165.443 118.047C165.094 117.757 164.659 117.612 164.139 117.612C163.607 117.612 163.163 117.757 162.81 118.047C162.46 118.336 162.198 118.726 162.023 119.216C161.853 119.702 161.768 120.245 161.768 120.846C161.768 121.442 161.853 121.984 162.023 122.469C162.198 122.955 162.46 123.343 162.81 123.633C163.163 123.918 163.607 124.061 164.139 124.061Z" fill="#898D9A"/>
<path d="M174.438 125.897C173.667 125.897 172.977 125.698 172.367 125.302C171.758 124.906 171.276 124.331 170.923 123.576C170.569 122.822 170.392 121.906 170.392 120.828C170.392 119.737 170.571 118.816 170.929 118.066C171.291 117.312 171.779 116.743 172.393 116.359C173.007 115.972 173.691 115.778 174.445 115.778C175.02 115.778 175.493 115.876 175.864 116.072C176.235 116.264 176.529 116.496 176.746 116.768C176.963 117.037 177.132 117.291 177.251 117.529H177.347V112.633H179.667V125.724H177.392V124.177H177.251C177.132 124.416 176.959 124.669 176.733 124.938C176.507 125.202 176.209 125.428 175.838 125.615C175.468 125.803 175.001 125.897 174.438 125.897ZM175.084 123.998C175.574 123.998 175.992 123.866 176.337 123.602C176.682 123.333 176.944 122.961 177.123 122.483C177.302 122.006 177.392 121.45 177.392 120.815C177.392 120.18 177.302 119.628 177.123 119.159C176.948 118.69 176.688 118.326 176.343 118.066C176.002 117.806 175.583 117.676 175.084 117.676C174.568 117.676 174.138 117.81 173.793 118.079C173.448 118.347 173.188 118.718 173.013 119.191C172.838 119.664 172.751 120.206 172.751 120.815C172.751 121.429 172.838 121.976 173.013 122.458C173.192 122.935 173.454 123.312 173.799 123.589C174.149 123.862 174.577 123.998 175.084 123.998Z" fill="#898D9A"/>
<path d="M191.499 115.905V117.695H185.855V115.905H191.499ZM187.249 113.553H189.563V122.77C189.563 123.081 189.609 123.32 189.703 123.486C189.801 123.648 189.929 123.759 190.087 123.818C190.244 123.878 190.419 123.908 190.611 123.908C190.756 123.908 190.888 123.897 191.007 123.876C191.131 123.854 191.225 123.835 191.288 123.818L191.678 125.627C191.555 125.67 191.378 125.717 191.148 125.768C190.922 125.819 190.645 125.849 190.317 125.857C189.737 125.874 189.215 125.787 188.751 125.595C188.286 125.399 187.918 125.097 187.645 124.687C187.377 124.278 187.244 123.767 187.249 123.153V113.553Z" fill="#898D9A"/>
<path d="M193.436 125.723V115.905H195.679V117.542H195.781C195.96 116.975 196.267 116.538 196.702 116.231C197.141 115.92 197.642 115.765 198.204 115.765C198.332 115.765 198.475 115.771 198.632 115.784C198.794 115.792 198.928 115.807 199.035 115.829V117.957C198.937 117.923 198.781 117.893 198.568 117.868C198.36 117.838 198.157 117.823 197.961 117.823C197.539 117.823 197.16 117.914 196.823 118.098C196.491 118.277 196.229 118.526 196.037 118.845C195.845 119.165 195.749 119.533 195.749 119.951V125.723H193.436Z" fill="#898D9A"/>
<path d="M206.829 121.594V115.905H209.143V125.723H206.899V123.978H206.797C206.576 124.528 206.211 124.977 205.704 125.327C205.201 125.676 204.581 125.851 203.844 125.851C203.201 125.851 202.632 125.708 202.137 125.423C201.647 125.133 201.264 124.713 200.987 124.163C200.71 123.609 200.571 122.94 200.571 122.156V115.905H202.885V121.798C202.885 122.42 203.056 122.915 203.397 123.281C203.737 123.648 204.185 123.831 204.739 123.831C205.08 123.831 205.41 123.748 205.73 123.582C206.049 123.415 206.311 123.168 206.516 122.84C206.725 122.508 206.829 122.092 206.829 121.594Z" fill="#898D9A"/>
<path d="M215.806 125.915C214.826 125.915 213.984 125.7 213.281 125.269C212.582 124.839 212.043 124.244 211.664 123.486C211.289 122.723 211.102 121.845 211.102 120.852C211.102 119.855 211.293 118.975 211.677 118.213C212.06 117.446 212.602 116.849 213.3 116.423C214.004 115.993 214.835 115.777 215.793 115.777C216.59 115.777 217.295 115.924 217.909 116.218C218.527 116.508 219.019 116.919 219.386 117.452C219.752 117.98 219.961 118.598 220.012 119.305H217.8C217.711 118.832 217.498 118.439 217.161 118.123C216.829 117.804 216.384 117.644 215.825 117.644C215.352 117.644 214.937 117.772 214.579 118.027C214.221 118.279 213.942 118.641 213.742 119.114C213.545 119.587 213.447 120.153 213.447 120.814C213.447 121.483 213.545 122.058 213.742 122.54C213.938 123.017 214.212 123.386 214.566 123.646C214.924 123.901 215.344 124.029 215.825 124.029C216.166 124.029 216.471 123.965 216.739 123.837C217.012 123.705 217.24 123.516 217.423 123.268C217.607 123.021 217.732 122.721 217.8 122.367H220.012C219.957 123.062 219.752 123.678 219.398 124.214C219.045 124.747 218.563 125.165 217.954 125.467C217.344 125.766 216.629 125.915 215.806 125.915Z" fill="#898D9A"/>
<path d="M224.021 122.643L224.014 119.85H224.385L227.913 115.906H230.617L226.277 120.738H225.798L224.021 122.643ZM221.911 125.724V112.633H224.225V125.724H221.911ZM228.073 125.724L224.877 121.256L226.437 119.626L230.841 125.724H228.073Z" fill="#898D9A"/>
<path d="M234.371 121.876V121.71C234.375 120.938 234.448 120.325 234.588 119.869C234.733 119.413 234.938 119.046 235.202 118.769C235.466 118.488 235.788 118.23 236.167 117.996C236.427 117.834 236.659 117.657 236.864 117.465C237.073 117.269 237.237 117.052 237.356 116.813C237.475 116.571 237.535 116.3 237.535 116.002C237.535 115.665 237.456 115.373 237.298 115.126C237.141 114.879 236.928 114.687 236.659 114.551C236.395 114.414 236.099 114.346 235.771 114.346C235.468 114.346 235.18 114.412 234.908 114.544C234.639 114.672 234.416 114.868 234.237 115.132C234.062 115.392 233.964 115.723 233.943 116.123H231.667C231.688 115.314 231.884 114.636 232.255 114.09C232.63 113.545 233.124 113.136 233.738 112.863C234.356 112.59 235.038 112.454 235.783 112.454C236.597 112.454 237.313 112.597 237.931 112.882C238.553 113.168 239.037 113.575 239.382 114.103C239.732 114.627 239.906 115.25 239.906 115.97C239.906 116.455 239.828 116.89 239.67 117.274C239.516 117.657 239.297 117.998 239.011 118.296C238.726 118.595 238.387 118.861 237.995 119.095C237.65 119.309 237.367 119.53 237.145 119.76C236.928 119.99 236.766 120.261 236.659 120.572C236.557 120.879 236.504 121.258 236.499 121.71V121.876H234.371ZM235.483 125.865C235.1 125.865 234.769 125.728 234.492 125.456C234.215 125.183 234.077 124.85 234.077 124.458C234.077 124.075 234.215 123.747 234.492 123.474C234.769 123.201 235.1 123.065 235.483 123.065C235.862 123.065 236.19 123.201 236.467 123.474C236.749 123.747 236.889 124.075 236.889 124.458C236.889 124.718 236.823 124.955 236.691 125.168C236.563 125.381 236.393 125.551 236.18 125.679C235.971 125.803 235.739 125.865 235.483 125.865Z" fill="#898D9A"/>
<path d="M36 39C36 36.7909 37.7909 35 40 35H118C120.209 35 122 36.7909 122 39V73C122 75.2091 120.209 77 118 77H40C37.7909 77 36 75.2091 36 73V39Z" fill="white"/>
<path fill-rule="evenodd" clip-rule="evenodd" d="M118 37H40C38.8954 37 38 37.8954 38 39V73C38 74.1046 38.8954 75 40 75H118C119.105 75 120 74.1046 120 73V39C120 37.8954 119.105 37 118 37ZM40 35C37.7909 35 36 36.7909 36 39V73C36 75.2091 37.7909 77 40 77H118C120.209 77 122 75.2091 122 73V39C122 36.7909 120.209 35 118 35H40Z" fill="#6B30C7"/>
<path d="M103.5 59H53.5C51.0147 59 49 61.0147 49 63.5C49 65.9853 51.0147 68 53.5 68H103.5C105.985 68 108 65.9853 108 63.5C108 61.0147 105.985 59 103.5 59Z" fill="#6B30C7"/>
<path d="M82.5 43H53.5C51.0147 43 49 45.0147 49 47.5C49 49.9853 51.0147 52 53.5 52H82.5C84.9853 52 87 49.9853 87 47.5C87 45.0147 84.9853 43 82.5 43Z" fill="#6B30C7"/>
<g filter="url(#filter1_d_4997_135788)">
<path d="M134 39C134 36.7909 135.791 35 138 35H217C219.209 35 221 36.7909 221 39V73C221 75.2091 219.209 77 217 77H138C135.791 77 134 75.2091 134 73V39Z" fill="white"/>
</g>
<path d="M201.5 59H151.5C149.015 59 147 61.0147 147 63.5C147 65.9853 149.015 68 151.5 68H201.5C203.985 68 206 65.9853 206 63.5C206 61.0147 203.985 59 201.5 59Z" fill="#D9D9D9"/>
<path d="M180.5 43H151.5C149.015 43 147 45.0147 147 47.5C147 49.9853 149.015 52 151.5 52H180.5C182.985 52 185 49.9853 185 47.5C185 45.0147 182.985 43 180.5 43Z" fill="#D9D9D9"/>
<g filter="url(#filter2_d_4997_135788)">
<path d="M233 39C233 36.7909 234.791 35 237 35H316C318.209 35 320 36.7909 320 39V73C320 75.2091 318.209 77 316 77H237C234.791 77 233 75.2091 233 73V39Z" fill="white"/>
</g>
<path d="M300.5 59H250.5C248.015 59 246 61.0147 246 63.5C246 65.9853 248.015 68 250.5 68H300.5C302.985 68 305 65.9853 305 63.5C305 61.0147 302.985 59 300.5 59Z" fill="#D9D9D9"/>
<path d="M279.5 43H250.5C248.015 43 246 45.0147 246 47.5C246 49.9853 248.015 52 250.5 52H279.5C281.985 52 284 49.9853 284 47.5C284 45.0147 281.985 43 279.5 43Z" fill="#D9D9D9"/>
<g filter="url(#filter3_d_4997_135788)">
<path d="M332 39C332 36.7909 333.791 35 336 35H415C417.209 35 419 36.7909 419 39V73C419 75.2091 417.209 77 415 77H336C333.791 77 332 75.2091 332 73V39Z" fill="white"/>
</g>
<path d="M399.5 59H349.5C347.015 59 345 61.0147 345 63.5C345 65.9853 347.015 68 349.5 68H399.5C401.985 68 404 65.9853 404 63.5C404 61.0147 401.985 59 399.5 59Z" fill="#D9D9D9"/>
<path d="M378.5 43H349.5C347.015 43 345 45.0147 345 47.5C345 49.9853 347.015 52 349.5 52H378.5C380.985 52 383 49.9853 383 47.5C383 45.0147 380.985 43 378.5 43Z" fill="#D9D9D9"/>
<path d="M371 143H62C59.2386 143 57 145.239 57 148C57 150.761 59.2386 153 62 153H371C373.761 153 376 150.761 376 148C376 145.239 373.761 143 371 143Z" fill="#D9D9D9"/>
<path d="M334 161H62C59.2386 161 57 163.239 57 166C57 168.761 59.2386 171 62 171H334C336.761 171 339 168.761 339 166C339 163.239 336.761 161 334 161Z" fill="#D9D9D9"/>
<path d="M347 179H62C59.2386 179 57 181.239 57 184C57 186.761 59.2386 189 62 189H347C349.761 189 352 186.761 352 184C352 181.239 349.761 179 347 179Z" fill="#C4E5FE"/>
<path d="M316 197H62C59.2386 197 57 199.239 57 202C57 204.761 59.2386 207 62 207H316C318.761 207 321 204.761 321 202C321 199.239 318.761 197 316 197Z" fill="#C4E5FE"/>
<path d="M57 233C57 228.582 60.5817 225 65 225H391C395.418 225 399 228.582 399 233V319C399 323.418 395.418 327 391 327H65C60.5817 327 57 323.418 57 319V233Z" fill="white"/>
<path fill-rule="evenodd" clip-rule="evenodd" d="M391 229H65C62.7909 229 61 230.791 61 233V319C61 321.209 62.7909 323 65 323H391C393.209 323 395 321.209 395 319V233C395 230.791 393.209 229 391 229ZM65 225C60.5817 225 57 228.582 57 233V319C57 323.418 60.5817 327 65 327H391C395.418 327 399 323.418 399 319V233C399 228.582 395.418 225 391 225H65Z" fill="url(#paint0_linear_4997_135788)"/>
<path d="M73 275C73 272.791 74.7909 271 77 271H305C307.209 271 309 272.791 309 275V299C309 301.209 307.209 303 305 303H77C74.7909 303 73 301.209 73 299V275Z" fill="white"/>
<path fill-rule="evenodd" clip-rule="evenodd" d="M305 273H77C75.8954 273 75 273.895 75 275V299C75 300.105 75.8954 301 77 301H305C306.105 301 307 300.105 307 299V275C307 273.895 306.105 273 305 273ZM77 271C74.7909 271 73 272.791 73 275V299C73 301.209 74.7909 303 77 303H305C307.209 303 309 301.209 309 299V275C309 272.791 307.209 271 305 271H77Z" fill="#6B30C7"/>
<path d="M209 281H90C86.6863 281 84 283.686 84 287C84 290.314 86.6863 293 90 293H209C212.314 293 215 290.314 215 287C215 283.686 212.314 281 209 281Z" fill="#E2CAFF"/>
<path fill-rule="evenodd" clip-rule="evenodd" d="M324 271C321.791 271 320 272.791 320 275V299C320 301.209 321.791 303 324 303H379C381.209 303 383 301.209 383 299V275C383 272.791 381.209 271 379 271H324ZM340.896 283.812C341.198 284.034 341.369 284.346 341.408 284.747H343.472C343.462 284.14 343.299 283.607 342.984 283.146C342.67 282.685 342.229 282.326 341.662 282.067C341.099 281.808 340.439 281.679 339.683 281.679C338.941 281.679 338.278 281.808 337.695 282.067C337.111 282.326 336.652 282.685 336.318 283.146C335.986 283.607 335.822 284.145 335.825 284.762C335.822 285.514 336.069 286.112 336.566 286.556C337.063 287 337.741 287.327 338.599 287.536L339.708 287.814C340.079 287.904 340.393 288.003 340.648 288.112C340.906 288.222 341.102 288.354 341.234 288.51C341.37 288.666 341.438 288.858 341.438 289.087C341.438 289.332 341.364 289.549 341.215 289.738C341.065 289.927 340.855 290.075 340.583 290.181C340.315 290.287 339.998 290.34 339.634 290.34C339.262 290.34 338.929 290.283 338.634 290.171C338.343 290.055 338.109 289.884 337.933 289.659C337.761 289.43 337.663 289.145 337.64 288.803H335.557C335.573 289.536 335.751 290.151 336.089 290.648C336.43 291.142 336.904 291.515 337.511 291.767C338.121 292.018 338.836 292.144 339.658 292.144C340.487 292.144 341.195 292.02 341.781 291.772C342.371 291.52 342.822 291.167 343.134 290.713C343.448 290.255 343.608 289.715 343.611 289.092C343.608 288.668 343.53 288.291 343.377 287.963C343.228 287.635 343.018 287.35 342.746 287.108C342.474 286.866 342.153 286.662 341.781 286.497C341.41 286.331 341.002 286.198 340.558 286.099L339.644 285.88C339.421 285.83 339.213 285.771 339.017 285.701C338.822 285.628 338.649 285.544 338.5 285.448C338.351 285.348 338.233 285.231 338.147 285.095C338.064 284.959 338.026 284.8 338.033 284.617C338.033 284.399 338.096 284.203 338.222 284.031C338.351 283.858 338.537 283.724 338.778 283.628C339.02 283.529 339.317 283.479 339.668 283.479C340.185 283.479 340.595 283.59 340.896 283.812ZM346.471 291.672C347.038 291.99 347.714 292.149 348.499 292.149C349.129 292.149 349.684 292.053 350.165 291.861C350.649 291.665 351.043 291.394 351.348 291.046C351.656 290.694 351.86 290.283 351.959 289.813L350.001 289.683C349.928 289.876 349.822 290.038 349.682 290.171C349.543 290.303 349.376 290.403 349.18 290.469C348.985 290.535 348.769 290.568 348.534 290.568C348.179 290.568 347.873 290.494 347.614 290.345C347.356 290.196 347.155 289.983 347.013 289.708C346.873 289.433 346.804 289.107 346.804 288.729V288.724H352.004V288.142C352.004 287.493 351.913 286.926 351.731 286.442C351.548 285.955 351.293 285.55 350.965 285.229C350.64 284.907 350.259 284.667 349.822 284.508C349.387 284.346 348.918 284.264 348.415 284.264C347.666 284.264 347.013 284.43 346.456 284.762C345.902 285.093 345.473 285.555 345.168 286.149C344.863 286.742 344.711 287.431 344.711 288.217C344.711 289.022 344.863 289.72 345.168 290.31C345.473 290.897 345.907 291.351 346.471 291.672ZM346.806 287.411C346.819 287.137 346.889 286.887 347.018 286.661C347.157 286.412 347.349 286.215 347.594 286.069C347.843 285.92 348.128 285.845 348.449 285.845C348.758 285.845 349.028 285.913 349.26 286.049C349.495 286.182 349.679 286.366 349.812 286.601C349.944 286.836 350.011 287.107 350.011 287.411H346.806ZM355.504 287.585V292H353.386V284.364H355.405V285.711H355.494C355.663 285.267 355.947 284.916 356.344 284.657C356.742 284.395 357.224 284.264 357.791 284.264C358.321 284.264 358.784 284.38 359.178 284.612C359.573 284.844 359.879 285.176 360.098 285.607C360.317 286.034 360.426 286.545 360.426 287.138V292H358.308V287.516C358.311 287.049 358.192 286.684 357.95 286.422C357.708 286.157 357.375 286.024 356.951 286.024C356.666 286.024 356.414 286.086 356.195 286.208C355.98 286.331 355.811 286.51 355.688 286.745C355.569 286.977 355.507 287.257 355.504 287.585ZM363.333 291.677C363.804 291.975 364.329 292.125 364.909 292.125C365.32 292.125 365.668 292.057 365.953 291.921C366.242 291.785 366.475 291.614 366.654 291.409C366.836 291.2 366.977 290.989 367.077 290.777H367.166V292H369.254V281.818H367.141V285.647H367.077C366.984 285.441 366.848 285.232 366.669 285.02C366.493 284.805 366.261 284.626 365.973 284.483C365.688 284.337 365.332 284.264 364.904 284.264C364.344 284.264 363.829 284.41 363.358 284.702C362.891 284.99 362.516 285.426 362.234 286.009C361.953 286.589 361.812 287.317 361.812 288.192C361.812 289.044 361.948 289.763 362.22 290.35C362.495 290.933 362.866 291.375 363.333 291.677ZM366.445 290.161C366.21 290.346 365.922 290.439 365.58 290.439C365.232 290.439 364.939 290.345 364.7 290.156C364.465 289.964 364.284 289.698 364.158 289.36C364.036 289.019 363.974 288.626 363.974 288.182C363.974 287.741 364.036 287.353 364.158 287.019C364.281 286.684 364.462 286.422 364.7 286.233C364.939 286.044 365.232 285.95 365.58 285.95C365.922 285.95 366.212 286.041 366.45 286.223C366.689 286.406 366.871 286.664 366.997 286.999C367.123 287.334 367.186 287.728 367.186 288.182C367.186 288.636 367.122 289.032 366.992 289.37C366.866 289.708 366.684 289.972 366.445 290.161Z" fill="#6B30C7"/>
<g filter="url(#filter4_d_4997_135788)">
<path fill-rule="evenodd" clip-rule="evenodd" d="M362.771 295.321C362.771 294.591 363.363 294 364.092 294C364.822 294 365.413 294.591 365.413 295.321V303.69C365.413 304.175 365.807 304.568 366.292 304.568C366.777 304.568 367.17 304.175 367.17 303.69V302.367C367.17 301.637 367.761 301.046 368.491 301.046C369.22 301.046 369.812 301.637 369.812 302.367V303.688C369.812 304.174 370.206 304.568 370.692 304.568C371.178 304.568 371.572 304.174 371.572 303.688V303.247C371.572 302.517 372.164 301.926 372.893 301.926C373.623 301.926 374.214 302.517 374.214 303.247V303.686C374.214 304.173 374.609 304.568 375.096 304.568H375.538C375.781 304.568 375.979 304.37 375.979 304.127C375.979 303.397 376.57 302.806 377.299 302.806C378.029 302.806 378.62 303.397 378.62 304.127V304.566L378.622 304.568L378.623 304.569V313.658C378.623 316.42 376.385 318.658 373.623 318.658H367.771C365.205 318.658 363.09 316.724 362.804 314.234C362.774 313.967 362.662 313.711 362.461 313.531C361.433 312.614 360.275 311.699 359.221 310.865C358.682 310.439 358.17 310.035 357.716 309.662C356.872 308.97 356.752 307.682 357.473 306.862C358.713 305.453 360.83 307.364 362.112 308.735C362.123 308.747 362.134 308.759 362.145 308.77C362.366 309.007 362.771 308.854 362.771 308.531V304.568V295.321Z" fill="white"/>
<mask id="mask0_4997_135788" style="mask-type:luminance" maskUnits="userSpaceOnUse" x="355" y="292" width="26" height="29">
<path d="M381 292H355V321H381V292Z" fill="white"/>
<path fill-rule="evenodd" clip-rule="evenodd" d="M362.771 295.321C362.771 294.591 363.363 294 364.092 294C364.822 294 365.413 294.591 365.413 295.321V303.69C365.413 304.175 365.807 304.568 366.292 304.568C366.777 304.568 367.17 304.175 367.17 303.69V302.367C367.17 301.637 367.761 301.046 368.491 301.046C369.22 301.046 369.812 301.637 369.812 302.367V303.688C369.812 304.174 370.206 304.568 370.692 304.568C371.178 304.568 371.572 304.174 371.572 303.688V303.247C371.572 302.517 372.164 301.926 372.893 301.926C373.623 301.926 374.214 302.517 374.214 303.247V303.686C374.214 304.173 374.609 304.568 375.096 304.568H375.538C375.781 304.568 375.979 304.37 375.979 304.127C375.979 303.397 376.57 302.806 377.299 302.806C378.029 302.806 378.62 303.397 378.62 304.127V304.566L378.622 304.568L378.623 304.569V313.658C378.623 316.42 376.385 318.658 373.623 318.658H367.771C365.205 318.658 363.09 316.724 362.804 314.234C362.774 313.967 362.662 313.711 362.461 313.531C361.433 312.614 360.275 311.699 359.221 310.865C358.682 310.439 358.17 310.035 357.716 309.662C356.872 308.97 356.752 307.682 357.473 306.862C358.713 305.453 360.83 307.364 362.112 308.735C362.123 308.747 362.134 308.759 362.145 308.77C362.366 309.007 362.771 308.854 362.771 308.531V304.568V295.321Z" fill="#3E424B"/>
</mask>
<g mask="url(#mask0_4997_135788)">
<path d="M377.479 304.127V302.627H374.479V304.127H377.479ZM359.221 310.865L358.285 312.038L358.291 312.042L359.221 310.865ZM359.221 310.865L360.156 309.693L360.149 309.687L359.221 310.865ZM359.221 310.865L358.239 312L358.265 312.022L358.291 312.042L359.221 310.865ZM359.221 310.865L360.201 309.73L360.176 309.709L360.15 309.688L359.221 310.865ZM364.092 292.5C362.534 292.5 361.271 293.763 361.271 295.321H364.271C364.271 295.42 364.191 295.5 364.092 295.5V292.5ZM366.913 295.321C366.913 293.763 365.65 292.5 364.092 292.5V295.5C363.994 295.5 363.913 295.42 363.913 295.321H366.913ZM366.913 303.69V295.321H363.913V303.69H366.913ZM365.67 302.367V303.69H368.67V302.367H365.67ZM368.491 299.546C366.933 299.546 365.67 300.809 365.67 302.367H368.67C368.67 302.466 368.59 302.546 368.491 302.546V299.546ZM371.312 302.367C371.312 300.809 370.049 299.546 368.491 299.546V302.546C368.392 302.546 368.312 302.466 368.312 302.367H371.312ZM371.312 303.688V302.367H368.312V303.688H371.312ZM370.072 303.247V303.688H373.072V303.247H370.072ZM372.893 300.426C371.335 300.426 370.072 301.689 370.072 303.247H373.072C373.072 303.346 372.992 303.426 372.893 303.426V300.426ZM375.714 303.247C375.714 301.689 374.451 300.426 372.893 300.426V303.426C372.794 303.426 372.714 303.346 372.714 303.247H375.714ZM375.714 303.686V303.247H372.714V303.686H375.714ZM375.538 303.068H375.096V306.068H375.538V303.068ZM377.479 304.127C377.479 304.226 377.398 304.306 377.299 304.306V301.306C375.742 301.306 374.479 302.569 374.479 304.127H377.479ZM377.299 304.306C377.201 304.306 377.12 304.226 377.12 304.127H380.12C380.12 302.569 378.857 301.306 377.299 301.306V304.306ZM377.12 304.127V304.566H380.12V304.127H377.12ZM380.123 313.658V304.569H377.123V313.658H380.123ZM373.623 320.158C377.213 320.158 380.123 317.248 380.123 313.658H377.123C377.123 315.591 375.556 317.158 373.623 317.158V320.158ZM367.771 320.158H373.623V317.158H367.771V320.158ZM361.314 314.405C361.686 317.644 364.434 320.158 367.771 320.158V317.158C365.976 317.158 364.494 315.805 364.295 314.063L361.314 314.405ZM358.291 312.042C359.352 312.881 360.474 313.768 361.463 314.65L363.46 312.412C362.393 311.459 361.198 310.516 360.151 309.688L358.291 312.042ZM358.291 312.042L358.292 312.043L360.149 309.687L358.291 312.042ZM356.764 310.822C357.231 311.205 357.755 311.618 358.291 312.042L360.15 309.688C359.609 309.26 359.109 308.865 358.668 308.503L356.764 310.822ZM356.347 305.872C355.051 307.345 355.282 309.605 356.764 310.822L358.668 308.503C358.576 308.428 358.514 308.312 358.502 308.177C358.49 308.044 358.53 307.932 358.599 307.853L356.347 305.872ZM363.208 307.711C362.553 307.011 361.571 306.041 360.51 305.447C359.978 305.149 359.299 304.872 358.55 304.867C357.726 304.862 356.946 305.19 356.347 305.872L358.599 307.853C358.626 307.823 358.624 307.835 358.588 307.851C358.552 307.867 358.527 307.867 358.532 307.867C358.569 307.868 358.732 307.89 359.044 308.065C359.672 308.416 360.389 309.088 361.017 309.76L363.208 307.711ZM363.243 307.748C363.231 307.736 363.22 307.723 363.208 307.711L361.017 309.76C361.027 309.771 361.037 309.782 361.047 309.793L363.243 307.748ZM361.271 304.568V308.531H364.271V304.568H361.271ZM361.271 295.321V304.568H364.271V295.321H361.271ZM364.295 314.063C364.231 313.51 363.991 312.886 363.46 312.412L361.463 314.65C361.334 314.536 361.316 314.423 361.314 314.405L364.295 314.063ZM377.12 304.566C377.12 305.396 377.793 306.068 378.622 306.068V303.068C379.45 303.068 380.12 303.739 380.12 304.566H377.12ZM361.047 309.793C362.153 310.98 364.271 310.28 364.271 308.531H361.271C361.271 307.429 362.578 307.034 363.243 307.748L361.047 309.793ZM370.692 306.068C372.007 306.068 373.072 305.002 373.072 303.688H370.072C370.072 303.345 370.35 303.068 370.692 303.068V306.068ZM366.292 306.068C367.605 306.068 368.67 305.003 368.67 303.69H365.67C365.67 303.346 365.948 303.068 366.292 303.068V306.068ZM372.714 303.686C372.714 305.001 373.781 306.068 375.096 306.068V303.068C375.438 303.068 375.714 303.345 375.714 303.686H372.714ZM378.622 306.068C377.794 306.068 377.123 305.397 377.123 304.569H380.123C380.123 303.74 379.451 303.068 378.622 303.068V306.068ZM368.312 303.688C368.312 305.002 369.378 306.068 370.692 306.068V303.068C371.034 303.068 371.312 303.345 371.312 303.688H368.312ZM375.538 306.068C376.61 306.068 377.479 305.199 377.479 304.127H374.479C374.479 303.542 374.953 303.068 375.538 303.068V306.068ZM363.913 303.69C363.913 305.003 364.978 306.068 366.292 306.068V303.068C366.635 303.068 366.913 303.346 366.913 303.69H363.913Z" fill="#3E424B"/>
</g>
</g>
<path fill-rule="evenodd" clip-rule="evenodd" d="M84.9365 252.22L77.4341 259.7C76.9132 260.219 76.0688 260.219 75.548 259.7L73.3906 257.549C72.8698 257.03 72.8698 256.188 73.3906 255.669L85.7072 243.389C86.228 242.87 87.0724 242.87 87.5933 243.389L89.7506 245.54C90.2714 246.06 90.2714 246.901 89.7506 247.421L86.2846 250.876L86.2868 250.879L84.9392 252.223L84.9365 252.22ZM83.5892 248.187L86.6502 245.136L87.9992 246.48L84.9378 249.533L83.5892 248.187ZM82.2412 249.531L75.142 256.609L76.491 257.954L83.5897 250.877L82.2412 249.531Z" fill="#6B30C7"/>
<path d="M85.9773 254.648C86.1 254.317 86.5692 254.317 86.692 254.648L87.4963 256.816C87.5349 256.92 87.6171 257.002 87.7214 257.041L89.8956 257.844C90.2272 257.966 90.2272 258.434 89.8956 258.556L87.7214 259.359C87.6171 259.397 87.5349 259.479 87.4963 259.583L86.692 261.752C86.5692 262.083 86.1 262.083 85.9773 261.752L85.1729 259.583C85.1343 259.479 85.0521 259.397 84.9478 259.359L82.7737 258.556C82.442 258.434 82.442 257.966 82.7737 257.844L84.9478 257.041C85.0521 257.002 85.1343 256.92 85.1729 256.816L85.9773 254.648Z" fill="#6B30C7"/>
<path d="M90.501 249.899C90.3783 249.568 89.9091 249.568 89.7864 249.899L89.2395 251.373C89.2009 251.477 89.1187 251.559 89.0144 251.597L87.5361 252.143C87.2045 252.266 87.2045 252.733 87.5361 252.856L89.0144 253.401C89.1187 253.44 89.2009 253.522 89.2395 253.626L89.7864 255.1C89.9091 255.431 90.3783 255.431 90.501 255.1L91.0479 253.626C91.0865 253.522 91.1687 253.44 91.273 253.401L92.7513 252.856C93.0829 252.733 93.0829 252.266 92.7513 252.143L91.273 251.597C91.1687 251.559 91.0865 251.477 91.0479 251.373L90.501 249.899Z" fill="#6B30C7"/>
<path d="M102.771 260H99.4758L104.497 245.455H108.46L113.474 260H110.179L106.535 248.778H106.422L102.771 260ZM102.565 254.283H110.349V256.683H102.565V254.283Z" fill="#6B30C7"/>
<path d="M123.991 252.202L121.221 252.372C121.174 252.135 121.072 251.922 120.916 251.733C120.76 251.539 120.554 251.385 120.298 251.271C120.047 251.153 119.746 251.094 119.396 251.094C118.927 251.094 118.532 251.193 118.21 251.392C117.888 251.586 117.727 251.847 117.727 252.173C117.727 252.434 117.831 252.654 118.039 252.834C118.248 253.014 118.605 253.158 119.112 253.267L121.086 253.665C122.147 253.883 122.938 254.233 123.458 254.716C123.979 255.199 124.24 255.833 124.24 256.619C124.24 257.334 124.029 257.962 123.608 258.501C123.191 259.041 122.618 259.463 121.889 259.766C121.164 260.064 120.329 260.213 119.382 260.213C117.938 260.213 116.787 259.912 115.93 259.311C115.078 258.705 114.578 257.881 114.431 256.84L117.407 256.683C117.497 257.124 117.715 257.46 118.061 257.692C118.406 257.919 118.849 258.033 119.389 258.033C119.919 258.033 120.345 257.931 120.667 257.727C120.994 257.519 121.16 257.251 121.164 256.925C121.16 256.65 121.044 256.425 120.816 256.25C120.589 256.07 120.239 255.933 119.765 255.838L117.876 255.462C116.811 255.249 116.018 254.879 115.497 254.354C114.981 253.828 114.723 253.158 114.723 252.344C114.723 251.643 114.912 251.039 115.291 250.533C115.674 250.026 116.212 249.635 116.903 249.361C117.599 249.086 118.413 248.949 119.346 248.949C120.724 248.949 121.808 249.24 122.599 249.822C123.395 250.405 123.859 251.198 123.991 252.202Z" fill="#6B30C7"/>
<path d="M128.886 256.861L128.893 253.232H129.334L132.828 249.091H136.301L131.607 254.574H130.889L128.886 256.861ZM126.145 260V245.455H129.17V260H126.145ZM132.963 260L129.753 255.249L131.77 253.111L136.507 260H132.963Z" fill="#6B30C7"/>
<path d="M144.978 260H141.683L146.704 245.455H150.667L155.681 260H152.386L148.743 248.778H148.629L144.978 260ZM144.772 254.283H152.556V256.683H144.772V254.283Z" fill="#6B30C7"/>
<path d="M160.507 245.455V260H157.432V245.455H160.507Z" fill="#6B30C7"/>
<path d="M395.157 214.942C393.823 204.731 387.064 195.472 376.325 189.568L386.631 184.949C388.154 184.267 388.831 182.478 388.142 180.956C387.452 179.433 385.658 178.751 384.134 179.434L367.774 186.765C366.251 187.447 365.574 189.236 366.264 190.759L373.664 207.112C374.352 208.634 376.147 209.317 377.671 208.633C379.195 207.951 379.87 206.162 379.182 204.64L375.237 195.92C383.449 201.021 388.18 208.27 389.15 215.703C390.365 225.01 385.782 235.501 372.89 243.388C371.466 244.259 371.022 246.119 371.901 247.544C372.778 248.968 374.645 249.416 376.068 248.544C390.524 239.7 396.743 227.106 395.157 214.942Z" fill="url(#paint1_linear_4997_135788)"/>
<path fill-rule="evenodd" clip-rule="evenodd" d="M373.03 246.849C373.525 247.653 374.578 247.903 375.376 247.414C389.49 238.78 395.347 226.648 393.843 215.114C392.573 205.392 386.123 196.467 375.687 190.729L373.354 189.447L386.089 183.74C386.941 183.359 387.322 182.358 386.935 181.503C386.545 180.643 385.531 180.26 384.676 180.643L368.316 187.975C367.464 188.356 367.084 189.357 367.471 190.212L374.872 206.566C375.26 207.425 376.273 207.808 377.129 207.424C377.981 207.043 378.362 206.043 377.975 205.186L372.232 192.494L375.936 194.795C384.433 200.072 389.435 207.646 390.464 215.532C391.761 225.465 386.819 236.42 373.582 244.519C372.785 245.006 372.535 246.047 373.029 246.848L373.03 246.849ZM370.773 248.239C372.033 250.284 374.712 250.928 376.759 249.675L370.773 248.239ZM370.773 248.239C369.51 246.191 370.148 243.513 372.198 242.258C384.745 234.582 388.969 224.555 387.836 215.875C387.09 210.155 383.96 204.471 378.49 199.896L380.39 204.094C381.379 206.282 380.409 208.859 378.213 209.843C376.021 210.826 373.445 209.844 372.457 207.658L365.057 191.306C364.064 189.116 365.038 186.539 367.233 185.556L383.593 178.225C385.785 177.243 388.359 178.225 389.349 180.409C390.34 182.598 389.368 185.176 387.173 186.159L379.213 189.726C388.963 195.819 395.171 204.816 396.471 214.77C398.14 227.563 391.559 240.621 376.759 249.675" fill="white"/>
<defs>
<filter id="filter0_d_4997_135788" x="35" y="92" width="386" height="255" filterUnits="userSpaceOnUse" color-interpolation-filters="sRGB">
<feFlood flood-opacity="0" result="BackgroundImageFix"/>
<feColorMatrix in="SourceAlpha" type="matrix" values="0 0 0 0 0 0 0 0 0 0 0 0 0 0 0 0 0 0 127 0" result="hardAlpha"/>
<feOffset/>
<feGaussianBlur stdDeviation="0.5"/>
<feComposite in2="hardAlpha" operator="out"/>
<feColorMatrix type="matrix" values="0 0 0 0 0 0 0 0 0 0 0 0 0 0 0 0 0 0 0.5 0"/>
<feBlend mode="normal" in2="BackgroundImageFix" result="effect1_dropShadow_4997_135788"/>
<feBlend mode="normal" in="SourceGraphic" in2="effect1_dropShadow_4997_135788" result="shape"/>
</filter>
<filter id="filter1_d_4997_135788" x="133" y="34" width="89" height="44" filterUnits="userSpaceOnUse" color-interpolation-filters="sRGB">
<feFlood flood-opacity="0" result="BackgroundImageFix"/>
<feColorMatrix in="SourceAlpha" type="matrix" values="0 0 0 0 0 0 0 0 0 0 0 0 0 0 0 0 0 0 127 0" result="hardAlpha"/>
<feOffset/>
<feGaussianBlur stdDeviation="0.5"/>
<feComposite in2="hardAlpha" operator="out"/>
<feColorMatrix type="matrix" values="0 0 0 0 0 0 0 0 0 0 0 0 0 0 0 0 0 0 0.5 0"/>
<feBlend mode="normal" in2="BackgroundImageFix" result="effect1_dropShadow_4997_135788"/>
<feBlend mode="normal" in="SourceGraphic" in2="effect1_dropShadow_4997_135788" result="shape"/>
</filter>
<filter id="filter2_d_4997_135788" x="232" y="34" width="89" height="44" filterUnits="userSpaceOnUse" color-interpolation-filters="sRGB">
<feFlood flood-opacity="0" result="BackgroundImageFix"/>
<feColorMatrix in="SourceAlpha" type="matrix" values="0 0 0 0 0 0 0 0 0 0 0 0 0 0 0 0 0 0 127 0" result="hardAlpha"/>
<feOffset/>
<feGaussianBlur stdDeviation="0.5"/>
<feComposite in2="hardAlpha" operator="out"/>
<feColorMatrix type="matrix" values="0 0 0 0 0 0 0 0 0 0 0 0 0 0 0 0 0 0 0.5 0"/>
<feBlend mode="normal" in2="BackgroundImageFix" result="effect1_dropShadow_4997_135788"/>
<feBlend mode="normal" in="SourceGraphic" in2="effect1_dropShadow_4997_135788" result="shape"/>
</filter>
<filter id="filter3_d_4997_135788" x="331" y="34" width="89" height="44" filterUnits="userSpaceOnUse" color-interpolation-filters="sRGB">
<feFlood flood-opacity="0" result="BackgroundImageFix"/>
<feColorMatrix in="SourceAlpha" type="matrix" values="0 0 0 0 0 0 0 0 0 0 0 0 0 0 0 0 0 0 127 0" result="hardAlpha"/>
<feOffset/>
<feGaussianBlur stdDeviation="0.5"/>
<feComposite in2="hardAlpha" operator="out"/>
<feColorMatrix type="matrix" values="0 0 0 0 0 0 0 0 0 0 0 0 0 0 0 0 0 0 0.5 0"/>
<feBlend mode="normal" in2="BackgroundImageFix" result="effect1_dropShadow_4997_135788"/>
<feBlend mode="normal" in="SourceGraphic" in2="effect1_dropShadow_4997_135788" result="shape"/>
</filter>
<filter id="filter4_d_4997_135788" x="352.5" y="290.5" width="30.6234" height="33.658" filterUnits="userSpaceOnUse" color-interpolation-filters="sRGB">
<feFlood flood-opacity="0" result="BackgroundImageFix"/>
<feColorMatrix in="SourceAlpha" type="matrix" values="0 0 0 0 0 0 0 0 0 0 0 0 0 0 0 0 0 0 127 0" result="hardAlpha"/>
<feOffset dy="1"/>
<feGaussianBlur stdDeviation="1.5"/>
<feColorMatrix type="matrix" values="0 0 0 0 0 0 0 0 0 0 0 0 0 0 0 0 0 0 0.35 0"/>
<feBlend mode="normal" in2="BackgroundImageFix" result="effect1_dropShadow_4997_135788"/>
<feBlend mode="normal" in="SourceGraphic" in2="effect1_dropShadow_4997_135788" result="shape"/>
</filter>
<linearGradient id="paint0_linear_4997_135788" x1="41.6358" y1="276.001" x2="414.364" y2="276.001" gradientUnits="userSpaceOnUse">
<stop offset="0.251136" stop-color="#B680FF"/>
<stop offset="1" stop-color="#00F7FF"/>
</linearGradient>
<linearGradient id="paint1_linear_4997_135788" x1="398.625" y1="224.872" x2="356.765" y2="200.704" gradientUnits="userSpaceOnUse">
<stop stop-color="#FF642D"/>
<stop offset="0.859375" stop-color="#FFFF00"/>
</linearGradient>
</defs>
</svg>
