<svg width="454" height="382" viewBox="0 0 454 382" fill="none" xmlns="http://www.w3.org/2000/svg">
<g clip-path="url(#clip0_4997_136349)">
<path d="M444 0H10C4.47715 0 0 4.47715 0 10V372C0 377.523 4.47715 382 10 382H444C449.523 382 454 377.523 454 372V10C454 4.47715 449.523 0 444 0Z" fill="white"/>
<path d="M427.952 16H26.0476C20.4985 16 16 20.6637 16 26.4167V355.583C16 361.336 20.4985 366 26.0476 366H427.952C433.502 366 438 361.336 438 355.583V26.4167C438 20.6637 433.502 16 427.952 16Z" fill="#F4F5F9"/>
<g filter="url(#filter0_d_4997_136349)">
<rect x="36" y="93" width="384" height="253" rx="4" fill="white"/>
</g>
<g filter="url(#filter1_d_4997_136349)">
<path d="M57 291C57 287.686 59.6863 285 63 285H393C396.314 285 399 287.686 399 291V326C399 329.314 396.314 332 393 332H63C59.6863 332 57 329.314 57 326V291Z" fill="white"/>
</g>
<g filter="url(#filter2_d_4997_136349)">
<path fill-rule="evenodd" clip-rule="evenodd" d="M393 289H63C61.8954 289 61 289.895 61 291V326C61 327.105 61.8954 328 63 328H393C394.105 328 395 327.105 395 326V291C395 289.895 394.105 289 393 289ZM63 285C59.6863 285 57 287.686 57 291V326C57 329.314 59.6863 332 63 332H393C396.314 332 399 329.314 399 326V291C399 287.686 396.314 285 393 285H63Z" fill="url(#paint0_linear_4997_136349)"/>
</g>
<path d="M73 301C73 298.791 74.7909 297 77 297H318C320.209 297 322 298.791 322 301V317C322 319.209 320.209 321 318 321H77C74.7909 321 73 319.209 73 317V301Z" fill="white"/>
<path fill-rule="evenodd" clip-rule="evenodd" d="M318 299H77C75.8954 299 75 299.895 75 301V317C75 318.105 75.8954 319 77 319H318C319.105 319 320 318.105 320 317V301C320 299.895 319.105 299 318 299ZM77 297C74.7909 297 73 298.791 73 301V317C73 319.209 74.7909 321 77 321H318C320.209 321 322 319.209 322 317V301C322 298.791 320.209 297 318 297H77Z" fill="#B880FF"/>
<rect x="82" y="305" width="186" height="8" rx="4" fill="#E2CAFF"/>
<path fill-rule="evenodd" clip-rule="evenodd" d="M335 297C332.791 297 331 298.791 331 301V317C331 319.209 332.791 321 335 321H379C381.209 321 383 319.209 383 317V301C383 298.791 381.209 297 379 297H335ZM348.212 307.151C348.427 307.31 348.549 307.533 348.577 307.819H350.051C350.044 307.386 349.928 307.005 349.703 306.676C349.478 306.346 349.163 306.09 348.759 305.905C348.356 305.72 347.885 305.628 347.345 305.628C346.815 305.628 346.341 305.72 345.925 305.905C345.508 306.09 345.18 306.346 344.941 306.676C344.704 307.005 344.587 307.389 344.589 307.83C344.587 308.367 344.763 308.794 345.119 309.112C345.474 309.429 345.958 309.662 346.571 309.811L347.363 310.01C347.628 310.074 347.852 310.145 348.034 310.223C348.219 310.301 348.358 310.396 348.453 310.507C348.55 310.618 348.599 310.756 348.599 310.919C348.599 311.094 348.545 311.249 348.439 311.384C348.332 311.519 348.182 311.625 347.988 311.7C347.796 311.776 347.57 311.814 347.31 311.814C347.044 311.814 346.807 311.774 346.596 311.693C346.388 311.61 346.221 311.488 346.095 311.328C345.972 311.164 345.902 310.961 345.886 310.717H344.398C344.41 311.24 344.536 311.679 344.778 312.034C345.022 312.387 345.36 312.653 345.793 312.833C346.229 313.013 346.74 313.103 347.327 313.103C347.919 313.103 348.425 313.014 348.844 312.837C349.265 312.657 349.587 312.405 349.81 312.08C350.035 311.754 350.148 311.368 350.151 310.923C350.148 310.62 350.093 310.351 349.984 310.117C349.877 309.882 349.727 309.679 349.533 309.506C349.339 309.333 349.109 309.187 348.844 309.069C348.579 308.951 348.287 308.856 347.97 308.785L347.317 308.629C347.158 308.593 347.009 308.551 346.869 308.501C346.73 308.449 346.607 308.388 346.5 308.32C346.393 308.249 346.309 308.165 346.248 308.068C346.189 307.97 346.161 307.857 346.166 307.727C346.166 307.57 346.211 307.431 346.301 307.308C346.393 307.185 346.526 307.089 346.699 307.02C346.872 306.949 347.084 306.913 347.334 306.913C347.704 306.913 347.996 306.993 348.212 307.151ZM352.193 312.766C352.598 312.993 353.081 313.107 353.642 313.107C354.092 313.107 354.489 313.038 354.832 312.901C355.177 312.761 355.459 312.567 355.677 312.318C355.897 312.067 356.043 311.774 356.114 311.438L354.715 311.345C354.663 311.483 354.587 311.599 354.487 311.693C354.388 311.788 354.268 311.859 354.129 311.906C353.989 311.954 353.835 311.977 353.667 311.977C353.414 311.977 353.195 311.924 353.01 311.818C352.825 311.711 352.682 311.56 352.58 311.363C352.481 311.167 352.431 310.933 352.431 310.663V310.66H356.146V310.244C356.146 309.78 356.081 309.376 355.95 309.03C355.82 308.682 355.638 308.393 355.404 308.163C355.172 307.934 354.899 307.762 354.587 307.649C354.277 307.533 353.942 307.475 353.582 307.475C353.047 307.475 352.58 307.593 352.183 307.83C351.787 308.066 351.481 308.397 351.263 308.82C351.045 309.244 350.936 309.737 350.936 310.298C350.936 310.873 351.045 311.371 351.263 311.793C351.481 312.212 351.791 312.536 352.193 312.766ZM352.433 309.722C352.442 309.527 352.492 309.348 352.584 309.186C352.683 309.009 352.821 308.868 352.996 308.764C353.173 308.657 353.377 308.604 353.607 308.604C353.827 308.604 354.02 308.652 354.186 308.749C354.354 308.844 354.485 308.975 354.58 309.144C354.674 309.312 354.722 309.505 354.722 309.722H352.433ZM358.646 309.847V313H357.133V307.546H358.575V308.508H358.639C358.759 308.191 358.962 307.94 359.246 307.755C359.53 307.568 359.874 307.475 360.279 307.475C360.658 307.475 360.988 307.557 361.27 307.723C361.552 307.889 361.771 308.126 361.927 308.433C362.083 308.739 362.161 309.103 362.161 309.527V313H360.649V309.797C360.651 309.463 360.566 309.203 360.393 309.016C360.22 308.826 359.982 308.732 359.679 308.732C359.476 308.732 359.296 308.775 359.139 308.863C358.985 308.951 358.865 309.078 358.777 309.247C358.692 309.412 358.648 309.612 358.646 309.847ZM364.238 312.769C364.574 312.982 364.949 313.089 365.364 313.089C365.657 313.089 365.906 313.04 366.109 312.943C366.315 312.846 366.482 312.724 366.61 312.578C366.74 312.428 366.841 312.278 366.912 312.127H366.976V313H368.467V305.727H366.958V308.462H366.912C366.846 308.315 366.749 308.166 366.621 308.014C366.495 307.86 366.33 307.733 366.124 307.631C365.92 307.527 365.665 307.475 365.36 307.475C364.96 307.475 364.592 307.579 364.256 307.787C363.922 307.993 363.654 308.304 363.453 308.721C363.252 309.135 363.151 309.655 363.151 310.28C363.151 310.888 363.248 311.402 363.442 311.821C363.639 312.238 363.904 312.554 364.238 312.769ZM366.461 311.686C366.293 311.819 366.087 311.885 365.843 311.885C365.594 311.885 365.385 311.818 365.214 311.683C365.046 311.545 364.917 311.356 364.827 311.114C364.74 310.871 364.696 310.59 364.696 310.273C364.696 309.958 364.74 309.681 364.827 309.442C364.915 309.203 365.044 309.016 365.214 308.881C365.385 308.746 365.594 308.678 365.843 308.678C366.087 308.678 366.294 308.743 366.464 308.874C366.635 309.004 366.765 309.189 366.855 309.428C366.945 309.667 366.99 309.948 366.99 310.273C366.99 310.597 366.944 310.88 366.852 311.122C366.762 311.363 366.631 311.551 366.461 311.686Z" fill="#6B30C7"/>
<path d="M367.012 104.728C374.239 113.431 375.437 117.899 373.529 129.05C373.509 129.162 373.641 129.238 373.728 129.165C382.432 121.937 386.899 120.74 398.05 122.648C398.162 122.668 398.238 122.536 398.165 122.449C390.937 113.745 389.74 109.278 391.648 98.1269C391.668 98.0149 391.536 97.9389 391.449 98.0117C382.746 105.239 378.279 106.437 367.127 104.529C367.015 104.509 366.939 104.641 367.012 104.728Z" fill="#C4E5FE"/>
<path d="M29.7585 167.305C37.0644 165.536 40.0805 166.127 46.1774 170.525C46.2386 170.569 46.3224 170.513 46.3045 170.44C44.5353 163.133 45.1267 160.118 49.525 154.021C49.5693 153.959 49.5129 153.876 49.4395 153.893C42.1329 155.663 39.1175 155.071 33.0206 150.673C32.9594 150.629 32.8756 150.685 32.8934 150.758C34.6623 158.064 34.0713 161.081 29.673 167.177C29.6287 167.239 29.6851 167.322 29.7585 167.305Z" fill="#C4E5FE"/>
<path d="M283.675 125.507C286.283 118.456 288.455 116.283 295.507 113.676C295.577 113.65 295.577 113.549 295.507 113.523C288.455 110.915 286.283 108.743 283.675 101.691C283.649 101.62 283.548 101.62 283.522 101.691C280.915 108.743 278.742 110.915 271.691 113.523C271.62 113.549 271.62 113.65 271.691 113.676C278.742 116.283 280.915 118.456 283.522 125.507C283.548 125.578 283.649 125.578 283.675 125.507Z" fill="#C4E5FE"/>
<path d="M406.833 196.087C408.949 193.097 410.245 192.349 413.892 192.011C413.929 192.008 413.941 191.96 413.911 191.939C410.922 189.823 410.173 188.526 409.836 184.879C409.832 184.843 409.785 184.83 409.764 184.86C407.648 187.85 406.351 188.598 402.704 188.936C402.668 188.939 402.655 188.987 402.685 189.008C405.674 191.124 406.423 192.42 406.761 196.067C406.764 196.104 406.811 196.117 406.833 196.087Z" fill="#E2CAFF"/>
<path d="M60.6946 130.724L57 117.633H59.5504L61.9091 127.253H62.0305L64.549 117.633H66.8693L69.3941 127.26H69.5092L71.8679 117.633H74.4183L70.7237 130.724H68.3842L65.7635 121.538H65.6612L63.0341 130.724H60.6946Z" fill="#898D9A"/>
<path d="M78.2739 124.971V130.724H75.96V117.633H78.2228V122.574H78.3378C78.5679 122.02 78.9237 121.583 79.4053 121.264C79.8911 120.94 80.509 120.778 81.259 120.778C81.9408 120.778 82.5353 120.92 83.0424 121.206C83.5495 121.492 83.9415 121.909 84.2185 122.459C84.4997 123.009 84.6404 123.68 84.6404 124.473V130.724H82.3264V124.831C82.3264 124.17 82.156 123.656 81.8151 123.29C81.4784 122.919 81.0054 122.734 80.396 122.734C79.987 122.734 79.6205 122.823 79.2966 123.002C78.977 123.177 78.7256 123.43 78.5424 123.763C78.3634 124.095 78.2739 124.498 78.2739 124.971Z" fill="#898D9A"/>
<path d="M89.8246 130.921C89.2025 130.921 88.6421 130.81 88.1435 130.589C87.6492 130.363 87.2571 130.031 86.9674 129.592C86.6819 129.153 86.5391 128.611 86.5391 127.968C86.5391 127.414 86.6414 126.956 86.8459 126.594C87.0505 126.232 87.3296 125.942 87.6833 125.724C88.037 125.507 88.4354 125.343 88.8786 125.232C89.326 125.117 89.7884 125.034 90.2657 124.983C90.841 124.923 91.3076 124.87 91.6655 124.823C92.0235 124.772 92.2834 124.695 92.4454 124.593C92.6115 124.486 92.6946 124.322 92.6946 124.101V124.062C92.6946 123.581 92.5519 123.208 92.2664 122.944C91.9809 122.68 91.5696 122.548 91.0327 122.548C90.4659 122.548 90.0164 122.672 89.684 122.919C89.3559 123.166 89.1343 123.458 89.0192 123.794L86.8587 123.488C87.0292 122.891 87.3104 122.392 87.7025 121.992C88.0945 121.587 88.5739 121.284 89.1407 121.084C89.7074 120.88 90.3338 120.777 91.0199 120.777C91.4929 120.777 91.9638 120.833 92.4326 120.944C92.9013 121.054 93.3296 121.238 93.7174 121.493C94.1052 121.745 94.4162 122.088 94.6506 122.522C94.8892 122.957 95.0086 123.5 95.0086 124.152V130.723H92.7841V129.374H92.7074C92.5668 129.647 92.3687 129.903 92.113 130.141C91.8615 130.376 91.5441 130.565 91.1606 130.71C90.7813 130.851 90.336 130.921 89.8246 130.921ZM90.4255 129.221C90.89 129.221 91.2927 129.129 91.6336 128.946C91.9745 128.759 92.2365 128.511 92.4198 128.205C92.6073 127.898 92.701 127.563 92.701 127.201V126.044C92.6286 126.104 92.505 126.159 92.3303 126.21C92.1598 126.261 91.9681 126.306 91.755 126.344C91.5419 126.383 91.331 126.417 91.1222 126.447C90.9134 126.477 90.7323 126.502 90.5789 126.523C90.2337 126.57 89.9248 126.647 89.652 126.754C89.3793 126.86 89.1641 127.009 89.0064 127.201C88.8488 127.388 88.7699 127.631 88.7699 127.93C88.7699 128.356 88.9255 128.678 89.2365 128.895C89.5476 129.112 89.9439 129.221 90.4255 129.221Z" fill="#898D9A"/>
<path d="M102.238 120.905V122.695H96.5938V120.905H102.238ZM97.9872 118.553H100.301V127.77C100.301 128.081 100.348 128.32 100.442 128.486C100.54 128.648 100.668 128.759 100.825 128.818C100.983 128.878 101.158 128.908 101.349 128.908C101.494 128.908 101.626 128.897 101.746 128.876C101.869 128.854 101.963 128.835 102.027 128.818L102.417 130.627C102.293 130.67 102.116 130.717 101.886 130.768C101.661 130.819 101.384 130.849 101.055 130.857C100.476 130.874 99.9538 130.787 99.4893 130.595C99.0248 130.399 98.6562 130.097 98.3835 129.687C98.115 129.278 97.9829 128.767 97.9872 128.153V118.553Z" fill="#898D9A"/>
<path d="M108.638 130.724V120.906H110.952V130.724H108.638ZM109.801 119.512C109.435 119.512 109.119 119.391 108.855 119.148C108.591 118.901 108.459 118.604 108.459 118.259C108.459 117.91 108.591 117.614 108.855 117.371C109.119 117.124 109.435 117 109.801 117C110.172 117 110.487 117.124 110.747 117.371C111.011 117.614 111.143 117.91 111.143 118.259C111.143 118.604 111.011 118.901 110.747 119.148C110.487 119.391 110.172 119.512 109.801 119.512Z" fill="#898D9A"/>
<path d="M121.091 123.5L118.982 123.73C118.922 123.517 118.818 123.317 118.668 123.13C118.524 122.942 118.328 122.791 118.08 122.676C117.833 122.561 117.531 122.503 117.173 122.503C116.691 122.503 116.286 122.608 115.958 122.816C115.634 123.025 115.475 123.296 115.479 123.628C115.475 123.913 115.579 124.146 115.792 124.325C116.009 124.504 116.367 124.651 116.866 124.766L118.541 125.124C119.47 125.324 120.16 125.641 120.612 126.076C121.068 126.511 121.298 127.08 121.302 127.783C121.298 128.401 121.117 128.946 120.759 129.419C120.405 129.888 119.913 130.254 119.282 130.518C118.651 130.783 117.927 130.915 117.109 130.915C115.907 130.915 114.94 130.663 114.207 130.16C113.474 129.653 113.037 128.948 112.896 128.045L115.153 127.827C115.255 128.271 115.472 128.605 115.805 128.831C116.137 129.057 116.57 129.17 117.102 129.17C117.652 129.17 118.093 129.057 118.426 128.831C118.762 128.605 118.93 128.326 118.93 127.994C118.93 127.712 118.822 127.48 118.604 127.297C118.391 127.114 118.059 126.973 117.607 126.875L115.933 126.523C114.991 126.327 114.294 125.997 113.842 125.533C113.391 125.064 113.167 124.472 113.171 123.756C113.167 123.151 113.331 122.627 113.663 122.184C114 121.736 114.467 121.391 115.063 121.148C115.664 120.901 116.357 120.777 117.141 120.777C118.291 120.777 119.197 121.022 119.857 121.512C120.522 122.002 120.933 122.665 121.091 123.5Z" fill="#898D9A"/>
<path d="M130.501 130.921C129.879 130.921 129.319 130.81 128.82 130.589C128.326 130.363 127.934 130.031 127.644 129.592C127.358 129.153 127.216 128.611 127.216 127.968C127.216 127.414 127.318 126.956 127.522 126.594C127.727 126.232 128.006 125.942 128.36 125.724C128.713 125.507 129.112 125.343 129.555 125.232C130.003 125.117 130.465 125.034 130.942 124.983C131.517 124.923 131.984 124.87 132.342 124.823C132.7 124.772 132.96 124.695 133.122 124.593C133.288 124.486 133.371 124.322 133.371 124.101V124.062C133.371 123.581 133.228 123.208 132.943 122.944C132.657 122.68 132.246 122.548 131.709 122.548C131.142 122.548 130.693 122.672 130.36 122.919C130.032 123.166 129.811 123.458 129.696 123.794L127.535 123.488C127.706 122.891 127.987 122.392 128.379 121.992C128.771 121.587 129.25 121.284 129.817 121.084C130.384 120.88 131.01 120.777 131.696 120.777C132.169 120.777 132.64 120.833 133.109 120.944C133.578 121.054 134.006 121.238 134.394 121.493C134.782 121.745 135.093 122.088 135.327 122.522C135.566 122.957 135.685 123.5 135.685 124.152V130.723H133.461V129.374H133.384C133.243 129.647 133.045 129.903 132.789 130.141C132.538 130.376 132.221 130.565 131.837 130.71C131.458 130.851 131.012 130.921 130.501 130.921ZM131.102 129.221C131.566 129.221 131.969 129.129 132.31 128.946C132.651 128.759 132.913 128.511 133.096 128.205C133.284 127.898 133.378 127.563 133.378 127.201V126.044C133.305 126.104 133.181 126.159 133.007 126.21C132.836 126.261 132.645 126.306 132.431 126.344C132.218 126.383 132.007 126.417 131.799 126.447C131.59 126.477 131.409 126.502 131.255 126.523C130.91 126.57 130.601 126.647 130.329 126.754C130.056 126.86 129.841 127.009 129.683 127.201C129.525 127.388 129.446 127.631 129.446 127.93C129.446 128.356 129.602 128.678 129.913 128.895C130.224 129.112 130.62 129.221 131.102 129.221Z" fill="#898D9A"/>
<path d="M147.45 120.906V122.696H141.646V120.906H147.45ZM143.097 130.724V119.979C143.097 119.319 143.233 118.769 143.506 118.33C143.783 117.891 144.153 117.563 144.618 117.345C145.082 117.128 145.598 117.02 146.165 117.02C146.565 117.02 146.921 117.051 147.232 117.115C147.543 117.179 147.773 117.237 147.923 117.288L147.462 119.078C147.364 119.048 147.241 119.018 147.092 118.988C146.943 118.954 146.776 118.937 146.593 118.937C146.163 118.937 145.858 119.042 145.679 119.25C145.504 119.455 145.417 119.749 145.417 120.132V130.724H143.097Z" fill="#898D9A"/>
<path d="M153.175 130.915C152.216 130.915 151.386 130.704 150.682 130.282C149.979 129.86 149.434 129.27 149.046 128.511C148.662 127.753 148.471 126.866 148.471 125.852C148.471 124.838 148.662 123.95 149.046 123.187C149.434 122.424 149.979 121.832 150.682 121.41C151.386 120.988 152.216 120.777 153.175 120.777C154.134 120.777 154.965 120.988 155.668 121.41C156.371 121.832 156.915 122.424 157.298 123.187C157.686 123.95 157.88 124.838 157.88 125.852C157.88 126.866 157.686 127.753 157.298 128.511C156.915 129.27 156.371 129.86 155.668 130.282C154.965 130.704 154.134 130.915 153.175 130.915ZM153.188 129.061C153.708 129.061 154.143 128.918 154.492 128.633C154.841 128.343 155.101 127.955 155.272 127.469C155.447 126.984 155.534 126.442 155.534 125.846C155.534 125.245 155.447 124.702 155.272 124.216C155.101 123.726 154.841 123.336 154.492 123.047C154.143 122.757 153.708 122.612 153.188 122.612C152.655 122.612 152.212 122.757 151.859 123.047C151.509 123.336 151.247 123.726 151.072 124.216C150.902 124.702 150.817 125.245 150.817 125.846C150.817 126.442 150.902 126.984 151.072 127.469C151.247 127.955 151.509 128.343 151.859 128.633C152.212 128.918 152.655 129.061 153.188 129.061Z" fill="#898D9A"/>
<path d="M164.126 130.915C163.168 130.915 162.337 130.704 161.634 130.282C160.93 129.86 160.385 129.27 159.997 128.511C159.614 127.753 159.422 126.866 159.422 125.852C159.422 124.838 159.614 123.95 159.997 123.187C160.385 122.424 160.93 121.832 161.634 121.41C162.337 120.988 163.168 120.777 164.126 120.777C165.085 120.777 165.916 120.988 166.619 121.41C167.322 121.832 167.866 122.424 168.249 123.187C168.637 123.95 168.831 124.838 168.831 125.852C168.831 126.866 168.637 127.753 168.249 128.511C167.866 129.27 167.322 129.86 166.619 130.282C165.916 130.704 165.085 130.915 164.126 130.915ZM164.139 129.061C164.659 129.061 165.094 128.918 165.443 128.633C165.793 128.343 166.053 127.955 166.223 127.469C166.398 126.984 166.485 126.442 166.485 125.846C166.485 125.245 166.398 124.702 166.223 124.216C166.053 123.726 165.793 123.336 165.443 123.047C165.094 122.757 164.659 122.612 164.139 122.612C163.607 122.612 163.163 122.757 162.81 123.047C162.46 123.336 162.198 123.726 162.023 124.216C161.853 124.702 161.768 125.245 161.768 125.846C161.768 126.442 161.853 126.984 162.023 127.469C162.198 127.955 162.46 128.343 162.81 128.633C163.163 128.918 163.607 129.061 164.139 129.061Z" fill="#898D9A"/>
<path d="M174.438 130.897C173.667 130.897 172.977 130.698 172.367 130.302C171.758 129.906 171.276 129.331 170.923 128.576C170.569 127.822 170.392 126.906 170.392 125.828C170.392 124.737 170.571 123.816 170.929 123.066C171.291 122.312 171.779 121.743 172.393 121.359C173.007 120.972 173.691 120.778 174.445 120.778C175.02 120.778 175.493 120.876 175.864 121.072C176.235 121.264 176.529 121.496 176.746 121.768C176.963 122.037 177.132 122.291 177.251 122.529H177.347V117.633H179.667V130.724H177.392V129.177H177.251C177.132 129.416 176.959 129.669 176.733 129.938C176.507 130.202 176.209 130.428 175.838 130.615C175.468 130.803 175.001 130.897 174.438 130.897ZM175.084 128.998C175.574 128.998 175.992 128.866 176.337 128.602C176.682 128.333 176.944 127.961 177.123 127.483C177.302 127.006 177.392 126.45 177.392 125.815C177.392 125.18 177.302 124.628 177.123 124.159C176.948 123.69 176.688 123.326 176.343 123.066C176.002 122.806 175.583 122.676 175.084 122.676C174.568 122.676 174.138 122.81 173.793 123.079C173.448 123.347 173.188 123.718 173.013 124.191C172.838 124.664 172.751 125.206 172.751 125.815C172.751 126.429 172.838 126.976 173.013 127.458C173.192 127.935 173.454 128.312 173.799 128.589C174.149 128.862 174.577 128.998 175.084 128.998Z" fill="#898D9A"/>
<path d="M191.499 120.905V122.695H185.855V120.905H191.499ZM187.249 118.553H189.563V127.77C189.563 128.081 189.609 128.32 189.703 128.486C189.801 128.648 189.929 128.759 190.087 128.818C190.244 128.878 190.419 128.908 190.611 128.908C190.756 128.908 190.888 128.897 191.007 128.876C191.131 128.854 191.225 128.835 191.288 128.818L191.678 130.627C191.555 130.67 191.378 130.717 191.148 130.768C190.922 130.819 190.645 130.849 190.317 130.857C189.737 130.874 189.215 130.787 188.751 130.595C188.286 130.399 187.918 130.097 187.645 129.687C187.377 129.278 187.244 128.767 187.249 128.153V118.553Z" fill="#898D9A"/>
<path d="M193.436 130.723V120.905H195.679V122.542H195.781C195.96 121.975 196.267 121.538 196.702 121.231C197.141 120.92 197.642 120.765 198.204 120.765C198.332 120.765 198.475 120.771 198.632 120.784C198.794 120.792 198.928 120.807 199.035 120.829V122.957C198.937 122.923 198.781 122.893 198.568 122.868C198.36 122.838 198.157 122.823 197.961 122.823C197.539 122.823 197.16 122.914 196.823 123.098C196.491 123.277 196.229 123.526 196.037 123.845C195.845 124.165 195.749 124.533 195.749 124.951V130.723H193.436Z" fill="#898D9A"/>
<path d="M206.829 126.594V120.905H209.143V130.723H206.899V128.978H206.797C206.576 129.528 206.211 129.977 205.704 130.327C205.201 130.676 204.581 130.851 203.844 130.851C203.201 130.851 202.632 130.708 202.137 130.423C201.647 130.133 201.264 129.713 200.987 129.163C200.71 128.609 200.571 127.94 200.571 127.156V120.905H202.885V126.798C202.885 127.42 203.056 127.915 203.397 128.281C203.737 128.648 204.185 128.831 204.739 128.831C205.08 128.831 205.41 128.748 205.73 128.582C206.049 128.415 206.311 128.168 206.516 127.84C206.725 127.508 206.829 127.092 206.829 126.594Z" fill="#898D9A"/>
<path d="M215.806 130.915C214.826 130.915 213.984 130.7 213.281 130.269C212.582 129.839 212.043 129.244 211.664 128.486C211.289 127.723 211.102 126.845 211.102 125.852C211.102 124.855 211.293 123.975 211.677 123.213C212.06 122.446 212.602 121.849 213.3 121.423C214.004 120.993 214.835 120.777 215.793 120.777C216.59 120.777 217.295 120.924 217.909 121.218C218.527 121.508 219.019 121.919 219.386 122.452C219.752 122.98 219.961 123.598 220.012 124.305H217.8C217.711 123.832 217.498 123.439 217.161 123.123C216.829 122.804 216.384 122.644 215.825 122.644C215.352 122.644 214.937 122.772 214.579 123.027C214.221 123.279 213.942 123.641 213.742 124.114C213.545 124.587 213.447 125.153 213.447 125.814C213.447 126.483 213.545 127.058 213.742 127.54C213.938 128.017 214.212 128.386 214.566 128.646C214.924 128.901 215.344 129.029 215.825 129.029C216.166 129.029 216.471 128.965 216.739 128.837C217.012 128.705 217.24 128.516 217.423 128.268C217.607 128.021 217.732 127.721 217.8 127.367H220.012C219.957 128.062 219.752 128.678 219.398 129.214C219.045 129.747 218.563 130.165 217.954 130.467C217.344 130.766 216.629 130.915 215.806 130.915Z" fill="#898D9A"/>
<path d="M224.021 127.643L224.014 124.85H224.385L227.913 120.906H230.617L226.277 125.738H225.798L224.021 127.643ZM221.911 130.724V117.633H224.225V130.724H221.911ZM228.073 130.724L224.877 126.256L226.437 124.626L230.841 130.724H228.073Z" fill="#898D9A"/>
<path d="M234.371 126.876V126.71C234.375 125.938 234.448 125.325 234.588 124.869C234.733 124.413 234.938 124.046 235.202 123.769C235.466 123.488 235.788 123.23 236.167 122.996C236.427 122.834 236.659 122.657 236.864 122.465C237.073 122.269 237.237 122.052 237.356 121.813C237.475 121.571 237.535 121.3 237.535 121.002C237.535 120.665 237.456 120.373 237.298 120.126C237.141 119.879 236.928 119.687 236.659 119.551C236.395 119.414 236.099 119.346 235.771 119.346C235.468 119.346 235.18 119.412 234.908 119.544C234.639 119.672 234.416 119.868 234.237 120.132C234.062 120.392 233.964 120.723 233.943 121.123H231.667C231.688 120.314 231.884 119.636 232.255 119.09C232.63 118.545 233.124 118.136 233.738 117.863C234.356 117.59 235.038 117.454 235.783 117.454C236.597 117.454 237.313 117.597 237.931 117.882C238.553 118.168 239.037 118.575 239.382 119.103C239.732 119.627 239.906 120.25 239.906 120.97C239.906 121.455 239.828 121.89 239.67 122.274C239.516 122.657 239.297 122.998 239.011 123.296C238.726 123.595 238.387 123.861 237.995 124.095C237.65 124.309 237.367 124.53 237.145 124.76C236.928 124.99 236.766 125.261 236.659 125.572C236.557 125.879 236.504 126.258 236.499 126.71V126.876H234.371ZM235.483 130.865C235.1 130.865 234.769 130.728 234.492 130.456C234.215 130.183 234.077 129.85 234.077 129.458C234.077 129.075 234.215 128.747 234.492 128.474C234.769 128.201 235.1 128.065 235.483 128.065C235.862 128.065 236.19 128.201 236.467 128.474C236.749 128.747 236.889 129.075 236.889 129.458C236.889 129.718 236.823 129.955 236.691 130.168C236.563 130.381 236.393 130.551 236.18 130.679C235.971 130.803 235.739 130.865 235.483 130.865Z" fill="#898D9A"/>
<g filter="url(#filter3_d_4997_136349)">
<rect x="36" y="35" width="87" height="42" rx="4" fill="white"/>
</g>
<rect x="49" y="59" width="59" height="9" rx="4.5" fill="#D9D9D9"/>
<rect x="49" y="43" width="38" height="9" rx="4.5" fill="#D9D9D9"/>
<g filter="url(#filter4_d_4997_136349)">
<rect x="135" y="35" width="87" height="42" rx="4" fill="white"/>
</g>
<rect x="148" y="59" width="59" height="9" rx="4.5" fill="#D9D9D9"/>
<rect x="148" y="43" width="38" height="9" rx="4.5" fill="#D9D9D9"/>
<path d="M234 39C234 36.7909 235.791 35 238 35H316C318.209 35 320 36.7909 320 39V73C320 75.2091 318.209 77 316 77H238C235.791 77 234 75.2091 234 73V39Z" fill="white"/>
<path fill-rule="evenodd" clip-rule="evenodd" d="M316 37H238C236.895 37 236 37.8954 236 39V73C236 74.1046 236.895 75 238 75H316C317.105 75 318 74.1046 318 73V39C318 37.8954 317.105 37 316 37ZM238 35C235.791 35 234 36.7909 234 39V73C234 75.2091 235.791 77 238 77H316C318.209 77 320 75.2091 320 73V39C320 36.7909 318.209 35 316 35H238Z" fill="#6B30C7"/>
<rect x="247" y="59" width="59" height="9" rx="4.5" fill="#6B30C7"/>
<rect x="247" y="43" width="38" height="9" rx="4.5" fill="#6B30C7"/>
<g filter="url(#filter5_d_4997_136349)">
<rect x="332" y="35" width="87" height="42" rx="4" fill="white"/>
</g>
<rect x="345" y="59" width="59" height="9" rx="4.5" fill="#D9D9D9"/>
<rect x="345" y="43" width="38" height="9" rx="4.5" fill="#D9D9D9"/>
<rect x="57" y="148" width="332" height="10" rx="5" fill="#D9D9D9"/>
<rect x="57" y="166" width="283" height="10" rx="5" fill="#D9D9D9"/>
<rect x="57" y="184" width="326" height="10" rx="5" fill="#D9D9D9"/>
<rect x="57" y="202" width="309" height="10" rx="5" fill="#D9D9D9"/>
<rect x="57" y="220" width="332" height="10" rx="5" fill="#FFCDFD"/>
<rect x="57" y="238" width="297" height="10" rx="5" fill="#FFCDFD"/>
<rect x="57" y="264" width="221" height="10" rx="5" fill="#FFCDFD"/>
<path d="M364.45 253.444C357.371 245.966 346.461 242.445 334.303 243.978L339.928 234.185C340.76 232.738 340.256 230.893 338.805 230.066C337.352 229.24 335.499 229.741 334.667 231.189L325.737 246.734C324.905 248.182 325.408 250.026 326.862 250.853L342.458 259.737C343.91 260.565 345.763 260.063 346.595 258.614C347.427 257.166 346.922 255.322 345.471 254.495L337.155 249.757C346.798 249.059 354.885 252.145 360.037 257.59C366.489 264.407 368.944 275.589 363.147 289.546C362.507 291.087 363.24 292.853 364.789 293.489C366.336 294.127 368.109 293.392 368.748 291.851C375.249 276.2 372.881 262.355 364.45 253.444Z" fill="url(#paint1_linear_4997_136349)"/>
<path fill-rule="evenodd" clip-rule="evenodd" d="M365.294 292.264C366.167 292.624 367.166 292.207 367.524 291.343C373.871 276.063 371.483 262.805 363.488 254.355C356.749 247.235 346.285 243.803 334.469 245.292L331.828 245.625L338.779 233.525C339.245 232.716 338.965 231.682 338.15 231.218C337.328 230.751 336.284 231.037 335.817 231.849L326.887 247.394C326.421 248.204 326.701 249.237 327.517 249.701L343.114 258.586C343.933 259.052 344.978 258.768 345.446 257.954C345.911 257.145 345.631 256.112 344.814 255.646L332.711 248.75L337.06 248.435C347.035 247.713 355.534 250.903 361 256.679C367.886 263.955 370.324 275.722 364.371 290.054C364.013 290.916 364.422 291.905 365.293 292.263L365.294 292.264ZM364.285 294.715C366.505 295.629 369.052 294.576 369.972 292.359L364.285 294.715ZM364.285 294.715C362.059 293.8 361.001 291.258 361.923 289.037C367.565 275.455 365.092 264.859 359.075 258.5C355.11 254.311 349.238 251.551 342.123 251.062L346.127 253.343C348.213 254.533 348.943 257.188 347.744 259.274C346.547 261.358 343.887 262.077 341.803 260.889C341.803 260.889 341.802 260.889 341.803 260.889L326.207 252.005C324.116 250.816 323.39 248.159 324.589 246.074L333.519 230.529C334.715 228.446 337.375 227.728 339.46 228.914C341.548 230.103 342.276 232.76 341.078 234.845C341.078 234.845 341.078 234.845 341.078 234.845L336.733 242.409C348.202 241.61 358.512 245.242 365.413 252.533C374.28 261.904 376.627 276.337 369.972 292.359" fill="white"/>
<rect x="282" y="258" width="2" height="16" fill="#FF7AD1"/>
<g filter="url(#filter6_dd_4997_136349)">
<circle cx="283" cy="247" r="11" fill="#FF7AD1"/>
<path d="M278.937 245.392C279.13 244.869 279.87 244.869 280.063 245.392L280.925 247.721C280.985 247.885 281.115 248.014 281.279 248.075L283.608 248.937C284.131 249.131 284.131 249.869 283.608 250.063L281.279 250.925C281.115 250.986 280.985 251.115 280.925 251.279L280.063 253.608C279.87 254.131 279.13 254.131 278.937 253.608L278.075 251.279C278.015 251.115 277.885 250.986 277.721 250.925L275.392 250.063C274.869 249.869 274.869 249.131 275.392 248.937L277.721 248.075C277.885 248.014 278.015 247.885 278.075 247.721L278.937 245.392Z" fill="white"/>
<path d="M284.062 239.305C284.213 238.898 284.787 238.898 284.938 239.305L285.608 241.116C285.655 241.244 285.756 241.345 285.884 241.392L287.695 242.062C288.102 242.213 288.102 242.787 287.695 242.938L285.884 243.608C285.756 243.655 285.655 243.756 285.608 243.884L284.938 245.695C284.787 246.102 284.213 246.102 284.062 245.695L283.392 243.884C283.345 243.756 283.244 243.655 283.116 243.608L281.305 242.938C280.898 242.787 280.898 242.213 281.305 242.062L283.116 241.392C283.244 241.345 283.345 241.244 283.392 241.116L284.062 239.305Z" fill="white"/>
<path d="M287.75 247.174C287.836 246.942 288.164 246.942 288.25 247.174L288.633 248.209C288.66 248.282 288.718 248.34 288.791 248.367L289.826 248.75C290.058 248.836 290.058 249.164 289.826 249.25L288.791 249.633C288.718 249.66 288.66 249.718 288.633 249.791L288.25 250.826C288.164 251.058 287.836 251.058 287.75 250.826L287.367 249.791C287.34 249.718 287.282 249.66 287.209 249.633L286.174 249.25C285.942 249.164 285.942 248.836 286.174 248.75L287.209 248.367C287.282 248.34 287.34 248.282 287.367 248.209L287.75 247.174Z" fill="white"/>
</g>
<g filter="url(#filter7_d_4997_136349)">
<path fill-rule="evenodd" clip-rule="evenodd" d="M361.771 320.321C361.771 319.591 362.363 319 363.092 319C363.822 319 364.413 319.591 364.413 320.321V328.69C364.413 329.175 364.807 329.568 365.292 329.568C365.777 329.568 366.17 329.175 366.17 328.69V327.367C366.17 326.637 366.761 326.046 367.491 326.046C368.22 326.046 368.812 326.637 368.812 327.367V328.688C368.812 329.174 369.206 329.568 369.692 329.568C370.178 329.568 370.572 329.174 370.572 328.688V328.247C370.572 327.517 371.164 326.926 371.893 326.926C372.623 326.926 373.214 327.517 373.214 328.247V328.686C373.214 329.173 373.609 329.568 374.096 329.568H374.538C374.781 329.568 374.979 329.37 374.979 329.127C374.979 328.397 375.57 327.806 376.299 327.806C377.029 327.806 377.62 328.397 377.62 329.127V329.566C377.62 329.567 377.621 329.568 377.622 329.568C377.623 329.568 377.623 329.569 377.623 329.569V338.658C377.623 341.42 375.385 343.658 372.623 343.658H366.771C364.205 343.658 362.09 341.724 361.804 339.234C361.774 338.967 361.662 338.711 361.461 338.531C360.433 337.614 359.275 336.699 358.221 335.865C357.682 335.439 357.17 335.035 356.716 334.662C355.872 333.97 355.752 332.682 356.473 331.862C357.713 330.453 359.83 332.364 361.112 333.735C361.123 333.747 361.134 333.759 361.145 333.77C361.366 334.007 361.771 333.854 361.771 333.531V329.568V320.321Z" fill="white"/>
<mask id="mask0_4997_136349" style="mask-type:luminance" maskUnits="userSpaceOnUse" x="354" y="317" width="26" height="29">
<path d="M380 317H354V346H380V317Z" fill="white"/>
<path fill-rule="evenodd" clip-rule="evenodd" d="M361.771 320.321C361.771 319.591 362.363 319 363.092 319C363.822 319 364.413 319.591 364.413 320.321V328.69C364.413 329.175 364.807 329.568 365.292 329.568C365.777 329.568 366.17 329.175 366.17 328.69V327.367C366.17 326.637 366.761 326.046 367.491 326.046C368.22 326.046 368.812 326.637 368.812 327.367V328.688C368.812 329.174 369.206 329.568 369.692 329.568C370.178 329.568 370.572 329.174 370.572 328.688V328.247C370.572 327.517 371.164 326.926 371.893 326.926C372.623 326.926 373.214 327.517 373.214 328.247V328.686C373.214 329.173 373.609 329.568 374.096 329.568H374.538C374.781 329.568 374.979 329.37 374.979 329.127C374.979 328.397 375.57 327.806 376.299 327.806C377.029 327.806 377.62 328.397 377.62 329.127V329.566C377.62 329.567 377.621 329.568 377.622 329.568C377.623 329.568 377.623 329.569 377.623 329.569V338.658C377.623 341.42 375.385 343.658 372.623 343.658H366.771C364.205 343.658 362.09 341.724 361.804 339.234C361.774 338.967 361.662 338.711 361.461 338.531C360.433 337.614 359.275 336.699 358.221 335.865C357.682 335.439 357.17 335.035 356.716 334.662C355.872 333.97 355.752 332.682 356.473 331.862C357.713 330.453 359.83 332.364 361.112 333.735C361.123 333.747 361.134 333.759 361.145 333.77C361.366 334.007 361.771 333.854 361.771 333.531V329.568V320.321Z" fill="#3E424B"/>
</mask>
<g mask="url(#mask0_4997_136349)">
<path d="M376.479 329.127V327.627H373.479V329.127H376.479ZM358.221 335.865L357.285 337.038L357.291 337.042L358.221 335.865ZM358.221 335.865L359.156 334.693L359.149 334.687L358.221 335.865ZM358.221 335.865L357.239 337L357.265 337.022L357.291 337.042L358.221 335.865ZM358.221 335.865L359.201 334.73L359.176 334.709L359.15 334.688L358.221 335.865ZM363.092 317.5C361.534 317.5 360.271 318.763 360.271 320.321H363.271C363.271 320.42 363.191 320.5 363.092 320.5V317.5ZM365.913 320.321C365.913 318.763 364.65 317.5 363.092 317.5V320.5C362.994 320.5 362.913 320.42 362.913 320.321H365.913ZM365.913 328.69V320.321H362.913V328.69H365.913ZM364.67 327.367V328.69H367.67V327.367H364.67ZM367.491 324.546C365.933 324.546 364.67 325.809 364.67 327.367H367.67C367.67 327.466 367.59 327.546 367.491 327.546V324.546ZM370.312 327.367C370.312 325.809 369.049 324.546 367.491 324.546V327.546C367.392 327.546 367.312 327.466 367.312 327.367H370.312ZM370.312 328.688V327.367H367.312V328.688H370.312ZM369.072 328.247V328.688H372.072V328.247H369.072ZM371.893 325.426C370.335 325.426 369.072 326.689 369.072 328.247H372.072C372.072 328.346 371.992 328.426 371.893 328.426V325.426ZM374.714 328.247C374.714 326.689 373.451 325.426 371.893 325.426V328.426C371.794 328.426 371.714 328.346 371.714 328.247H374.714ZM374.714 328.686V328.247H371.714V328.686H374.714ZM374.538 328.068H374.096V331.068H374.538V328.068ZM376.479 329.127C376.479 329.226 376.398 329.306 376.299 329.306V326.306C374.742 326.306 373.479 327.569 373.479 329.127H376.479ZM376.299 329.306C376.201 329.306 376.12 329.226 376.12 329.127H379.12C379.12 327.569 377.857 326.306 376.299 326.306V329.306ZM376.12 329.127V329.566H379.12V329.127H376.12ZM379.123 338.658V329.569H376.123V338.658H379.123ZM372.623 345.158C376.213 345.158 379.123 342.248 379.123 338.658H376.123C376.123 340.591 374.556 342.158 372.623 342.158V345.158ZM366.771 345.158H372.623V342.158H366.771V345.158ZM360.314 339.405C360.686 342.644 363.434 345.158 366.771 345.158V342.158C364.976 342.158 363.494 340.805 363.295 339.063L360.314 339.405ZM357.291 337.042C358.352 337.881 359.474 338.768 360.463 339.65L362.46 337.412C361.393 336.459 360.198 335.516 359.151 334.688L357.291 337.042ZM357.291 337.042L357.292 337.043L359.149 334.687L357.291 337.042ZM355.764 335.822C356.231 336.205 356.754 336.618 357.29 337.042L359.15 334.688C358.609 334.26 358.109 333.865 357.668 333.503L355.764 335.822ZM355.347 330.872C354.051 332.345 354.282 334.605 355.764 335.822L357.668 333.503C357.576 333.428 357.514 333.312 357.502 333.177C357.49 333.044 357.53 332.932 357.599 332.853L355.347 330.872ZM362.208 332.711C361.553 332.011 360.571 331.041 359.51 330.447C358.978 330.149 358.299 329.872 357.55 329.867C356.726 329.862 355.946 330.19 355.347 330.872L357.599 332.853C357.626 332.823 357.624 332.835 357.588 332.851C357.552 332.867 357.527 332.867 357.532 332.867C357.569 332.868 357.732 332.89 358.044 333.065C358.672 333.416 359.389 334.088 360.017 334.76L362.208 332.711ZM362.243 332.748C362.231 332.736 362.22 332.723 362.208 332.711L360.017 334.76C360.027 334.771 360.037 334.782 360.047 334.793L362.243 332.748ZM360.271 329.568V333.531H363.271V329.568H360.271ZM360.271 320.321V329.568H363.271V320.321H360.271ZM363.295 339.063C363.231 338.51 362.991 337.886 362.46 337.412L360.463 339.65C360.334 339.536 360.316 339.423 360.314 339.405L363.295 339.063ZM376.12 329.566C376.12 330.396 376.793 331.068 377.622 331.068V328.068C378.45 328.068 379.12 328.739 379.12 329.566H376.12ZM360.047 334.793C361.153 335.98 363.271 335.28 363.271 333.531H360.271C360.271 332.429 361.578 332.034 362.243 332.748L360.047 334.793ZM369.692 331.068C371.007 331.068 372.072 330.002 372.072 328.688H369.072C369.072 328.345 369.35 328.068 369.692 328.068V331.068ZM365.292 331.068C366.605 331.068 367.67 330.003 367.67 328.69H364.67C364.67 328.346 364.948 328.068 365.292 328.068V331.068ZM371.714 328.686C371.714 330.001 372.781 331.068 374.096 331.068V328.068C374.438 328.068 374.714 328.345 374.714 328.686H371.714ZM377.622 331.068C376.794 331.068 376.123 330.397 376.123 329.569H379.123C379.123 328.74 378.451 328.068 377.622 328.068V331.068ZM367.312 328.688C367.312 330.002 368.378 331.068 369.692 331.068V328.068C370.034 328.068 370.312 328.345 370.312 328.688H367.312ZM374.538 331.068C375.61 331.068 376.479 330.199 376.479 329.127H373.479C373.479 328.542 373.953 328.068 374.538 328.068V331.068ZM362.913 328.69C362.913 330.003 363.978 331.068 365.292 331.068V328.068C365.635 328.068 365.913 328.346 365.913 328.69H362.913Z" fill="#3E424B"/>
</g>
</g>
</g>
<defs>
<filter id="filter0_d_4997_136349" x="35" y="92" width="386" height="255" filterUnits="userSpaceOnUse" color-interpolation-filters="sRGB">
<feFlood flood-opacity="0" result="BackgroundImageFix"/>
<feColorMatrix in="SourceAlpha" type="matrix" values="0 0 0 0 0 0 0 0 0 0 0 0 0 0 0 0 0 0 127 0" result="hardAlpha"/>
<feOffset/>
<feGaussianBlur stdDeviation="0.5"/>
<feComposite in2="hardAlpha" operator="out"/>
<feColorMatrix type="matrix" values="0 0 0 0 0 0 0 0 0 0 0 0 0 0 0 0 0 0 0.5 0"/>
<feBlend mode="normal" in2="BackgroundImageFix" result="effect1_dropShadow_4997_136349"/>
<feBlend mode="normal" in="SourceGraphic" in2="effect1_dropShadow_4997_136349" result="shape"/>
</filter>
<filter id="filter1_d_4997_136349" x="56" y="284" width="344" height="49" filterUnits="userSpaceOnUse" color-interpolation-filters="sRGB">
<feFlood flood-opacity="0" result="BackgroundImageFix"/>
<feColorMatrix in="SourceAlpha" type="matrix" values="0 0 0 0 0 0 0 0 0 0 0 0 0 0 0 0 0 0 127 0" result="hardAlpha"/>
<feOffset/>
<feGaussianBlur stdDeviation="0.5"/>
<feComposite in2="hardAlpha" operator="out"/>
<feColorMatrix type="matrix" values="0 0 0 0 0.0980392 0 0 0 0 0.105882 0 0 0 0 0.137255 0 0 0 0.16 0"/>
<feBlend mode="normal" in2="BackgroundImageFix" result="effect1_dropShadow_4997_136349"/>
<feBlend mode="normal" in="SourceGraphic" in2="effect1_dropShadow_4997_136349" result="shape"/>
</filter>
<filter id="filter2_d_4997_136349" x="56" y="284" width="344" height="49" filterUnits="userSpaceOnUse" color-interpolation-filters="sRGB">
<feFlood flood-opacity="0" result="BackgroundImageFix"/>
<feColorMatrix in="SourceAlpha" type="matrix" values="0 0 0 0 0 0 0 0 0 0 0 0 0 0 0 0 0 0 127 0" result="hardAlpha"/>
<feOffset/>
<feGaussianBlur stdDeviation="0.5"/>
<feComposite in2="hardAlpha" operator="out"/>
<feColorMatrix type="matrix" values="0 0 0 0 0.0980392 0 0 0 0 0.105882 0 0 0 0 0.137255 0 0 0 0.16 0"/>
<feBlend mode="normal" in2="BackgroundImageFix" result="effect1_dropShadow_4997_136349"/>
<feBlend mode="normal" in="SourceGraphic" in2="effect1_dropShadow_4997_136349" result="shape"/>
</filter>
<filter id="filter3_d_4997_136349" x="35" y="34" width="89" height="44" filterUnits="userSpaceOnUse" color-interpolation-filters="sRGB">
<feFlood flood-opacity="0" result="BackgroundImageFix"/>
<feColorMatrix in="SourceAlpha" type="matrix" values="0 0 0 0 0 0 0 0 0 0 0 0 0 0 0 0 0 0 127 0" result="hardAlpha"/>
<feOffset/>
<feGaussianBlur stdDeviation="0.5"/>
<feComposite in2="hardAlpha" operator="out"/>
<feColorMatrix type="matrix" values="0 0 0 0 0 0 0 0 0 0 0 0 0 0 0 0 0 0 0.5 0"/>
<feBlend mode="normal" in2="BackgroundImageFix" result="effect1_dropShadow_4997_136349"/>
<feBlend mode="normal" in="SourceGraphic" in2="effect1_dropShadow_4997_136349" result="shape"/>
</filter>
<filter id="filter4_d_4997_136349" x="134" y="34" width="89" height="44" filterUnits="userSpaceOnUse" color-interpolation-filters="sRGB">
<feFlood flood-opacity="0" result="BackgroundImageFix"/>
<feColorMatrix in="SourceAlpha" type="matrix" values="0 0 0 0 0 0 0 0 0 0 0 0 0 0 0 0 0 0 127 0" result="hardAlpha"/>
<feOffset/>
<feGaussianBlur stdDeviation="0.5"/>
<feComposite in2="hardAlpha" operator="out"/>
<feColorMatrix type="matrix" values="0 0 0 0 0 0 0 0 0 0 0 0 0 0 0 0 0 0 0.5 0"/>
<feBlend mode="normal" in2="BackgroundImageFix" result="effect1_dropShadow_4997_136349"/>
<feBlend mode="normal" in="SourceGraphic" in2="effect1_dropShadow_4997_136349" result="shape"/>
</filter>
<filter id="filter5_d_4997_136349" x="331" y="34" width="89" height="44" filterUnits="userSpaceOnUse" color-interpolation-filters="sRGB">
<feFlood flood-opacity="0" result="BackgroundImageFix"/>
<feColorMatrix in="SourceAlpha" type="matrix" values="0 0 0 0 0 0 0 0 0 0 0 0 0 0 0 0 0 0 127 0" result="hardAlpha"/>
<feOffset/>
<feGaussianBlur stdDeviation="0.5"/>
<feComposite in2="hardAlpha" operator="out"/>
<feColorMatrix type="matrix" values="0 0 0 0 0 0 0 0 0 0 0 0 0 0 0 0 0 0 0.5 0"/>
<feBlend mode="normal" in2="BackgroundImageFix" result="effect1_dropShadow_4997_136349"/>
<feBlend mode="normal" in="SourceGraphic" in2="effect1_dropShadow_4997_136349" result="shape"/>
</filter>
<filter id="filter6_dd_4997_136349" x="270" y="235" width="26" height="26" filterUnits="userSpaceOnUse" color-interpolation-filters="sRGB">
<feFlood flood-opacity="0" result="BackgroundImageFix"/>
<feColorMatrix in="SourceAlpha" type="matrix" values="0 0 0 0 0 0 0 0 0 0 0 0 0 0 0 0 0 0 127 0" result="hardAlpha"/>
<feOffset dy="1"/>
<feGaussianBlur stdDeviation="1"/>
<feColorMatrix type="matrix" values="0 0 0 0 0.0980392 0 0 0 0 0.105882 0 0 0 0 0.137255 0 0 0 0.12 0"/>
<feBlend mode="normal" in2="BackgroundImageFix" result="effect1_dropShadow_4997_136349"/>
<feColorMatrix in="SourceAlpha" type="matrix" values="0 0 0 0 0 0 0 0 0 0 0 0 0 0 0 0 0 0 127 0" result="hardAlpha"/>
<feOffset/>
<feGaussianBlur stdDeviation="0.5"/>
<feColorMatrix type="matrix" values="0 0 0 0 0.0980392 0 0 0 0 0.105882 0 0 0 0 0.137255 0 0 0 0.16 0"/>
<feBlend mode="normal" in2="effect1_dropShadow_4997_136349" result="effect2_dropShadow_4997_136349"/>
<feBlend mode="normal" in="SourceGraphic" in2="effect2_dropShadow_4997_136349" result="shape"/>
</filter>
<filter id="filter7_d_4997_136349" x="351.5" y="315.5" width="30.6233" height="33.658" filterUnits="userSpaceOnUse" color-interpolation-filters="sRGB">
<feFlood flood-opacity="0" result="BackgroundImageFix"/>
<feColorMatrix in="SourceAlpha" type="matrix" values="0 0 0 0 0 0 0 0 0 0 0 0 0 0 0 0 0 0 127 0" result="hardAlpha"/>
<feOffset dy="1"/>
<feGaussianBlur stdDeviation="1.5"/>
<feColorMatrix type="matrix" values="0 0 0 0 0 0 0 0 0 0 0 0 0 0 0 0 0 0 0.35 0"/>
<feBlend mode="normal" in2="BackgroundImageFix" result="effect1_dropShadow_4997_136349"/>
<feBlend mode="normal" in="SourceGraphic" in2="effect1_dropShadow_4997_136349" result="shape"/>
</filter>
<linearGradient id="paint0_linear_4997_136349" x1="41.6358" y1="308.501" x2="414.364" y2="308.501" gradientUnits="userSpaceOnUse">
<stop offset="0.251136" stop-color="#B680FF"/>
<stop offset="1" stop-color="#00F7FF"/>
</linearGradient>
<linearGradient id="paint1_linear_4997_136349" x1="373.091" y1="259.442" x2="325.02" y2="264.482" gradientUnits="userSpaceOnUse">
<stop offset="0.251136" stop-color="#B680FF"/>
<stop offset="1" stop-color="#00F7FF"/>
</linearGradient>
<clipPath id="clip0_4997_136349">
<rect width="454" height="382" rx="10" fill="white"/>
</clipPath>
</defs>
</svg>
